<?xml version="1.0" standalone="no"?>
<!DOCTYPE svg PUBLIC "-//W3C//DTD SVG 1.1//EN" "http://www.w3.org/Graphics/SVG/1.1/DTD/svg11.dtd" >
<svg xmlns="http://www.w3.org/2000/svg" xmlns:xlink="http://www.w3.org/1999/xlink" version="1.1">
<metadata></metadata>
<defs>
<font id="cormorantbold" horiz-adv-x="661" >
<font-face units-per-em="2048" ascent="1638" descent="-410" />
<missing-glyph horiz-adv-x="479" />
<glyph horiz-adv-x="0" />
<glyph horiz-adv-x="682" />
<glyph unicode=" "  horiz-adv-x="479" />
<glyph unicode="&#x09;" horiz-adv-x="479" />
<glyph unicode="&#xa0;" horiz-adv-x="479" />
<glyph unicode="!" horiz-adv-x="538" d="M125 1260q-4 14 43 21t100 7t101.5 -7t44.5 -21q-45 -156 -66.5 -340.5t-44.5 -466.5q0 -20 -4 -66q0 -4 -11.5 -7t-23.5 -3t-23.5 3t-11.5 7q-18 303 -38.5 503t-65.5 370zM131 102q0 53 34 86t91 33t89 -31.5t32 -87.5q0 -59 -32 -92t-89 -33t-91 34t-34 91z" />
<glyph unicode="&#x22;" horiz-adv-x="618" d="M57 1241q-2 25 65.5 48.5t121.5 23.5q18 0 27.5 -5t7.5 -14l-129 -544q-4 -4 -18.5 -6.5t-14.5 4.5zM368 1241q-2 25 65.5 48.5t121.5 23.5q18 0 27.5 -5t7.5 -14l-129 -544q-4 -4 -18.5 -6.5t-14.5 4.5z" />
<glyph unicode="#" horiz-adv-x="1077" d="M119 205q0 16 3 30.5t5 14.5h147l56 309h-129q-4 0 -7.5 16.5t-3.5 34.5q0 16 3.5 30.5t5.5 14.5h147l60 332q0 10 52 -2t50 -20l-55 -310h276l59 332q0 10 52.5 -2t50.5 -20l-55 -310h112q4 0 7 -15t3 -32q0 -18 -3 -33.5t-7 -15.5h-129l-55 -309h113q4 0 7 -15.5 t3 -33.5t-3 -33.5t-7 -15.5h-129l-58 -322q0 -8 -53 0t-49 16l53 306h-276l-58 -322q0 -8 -54 0t-50 16l53 306h-127q-4 0 -7 16t-3 37zM381 250h278l54 309h-277z" />
<glyph unicode="$" horiz-adv-x="864" d="M98 326q0 8 10.5 10t14.5 -6q72 -123 140.5 -204t156.5 -99v389l-62 33q-121 66 -184 124t-63 150q0 109 88 177.5t221 80.5v168q0 8 9 12t22 4q12 0 20 -4t8 -12v-166q63 -2 131 -15.5t109 -31.5q18 -6 24.5 -15.5t6.5 -25.5v-195q0 -6 -10.5 -9t-14.5 3 q-33 70 -92.5 143.5t-153.5 94.5v-344l49 -25q92 -49 144.5 -83t90.5 -87t38 -125q0 -114 -90 -196t-232 -95v-186q0 -14 -28 -14q-31 0 -31 14v184q-90 2 -176 25t-119 51q-16 10 -16 43zM281 803q0 -60 36.5 -104t102.5 -81v318q-72 -2 -105.5 -39t-33.5 -94zM479 23 q60 4 99.5 42.5t39.5 108.5q0 63 -36.5 112.5t-102.5 92.5v-356z" />
<glyph unicode="%" horiz-adv-x="1175" d="M37 887q0 109 76.5 184.5t193.5 75.5t191.5 -77t74.5 -189q0 -111 -75.5 -185.5t-190.5 -74.5q-117 0 -193.5 76.5t-76.5 189.5zM164 27l758 1114q6 6 36.5 -17.5t26.5 -27.5l-760 -1112q-4 -7 -34.5 14.5t-26.5 28.5zM203 893q0 -240 119 -240q51 0 67.5 54.5 t16.5 158.5q0 123 -29 185.5t-82 62.5t-72.5 -58.5t-19.5 -162.5zM604 256q0 109 77 185.5t193 76.5q117 0 192 -78t75 -188q0 -111 -75 -186.5t-192 -75.5q-116 0 -193 76.5t-77 189.5zM772 264q0 -113 25.5 -176t91.5 -63q51 0 67.5 53t16.5 160q0 121 -29 183t-82 62 q-51 0 -70.5 -58t-19.5 -161z" />
<glyph unicode="&#x26;" horiz-adv-x="1466" d="M133 268q0 98 67.5 176t205.5 181q-33 43 -64 98q-29 57 -44 108.5t-15 112.5q0 166 105.5 272.5t287.5 106.5q127 0 200.5 -54.5t73.5 -150.5q0 -80 -46 -146.5t-105.5 -111.5t-184.5 -129q147 -219 412 -430q18 72 18 162q0 119 -38.5 173t-126.5 54q-4 0 -5.5 12.5 t5.5 12.5l487 2q6 0 6 -12.5t-6 -12.5q-61 0 -91 -13t-45.5 -44t-33.5 -98q-23 -82 -47.5 -150t-63.5 -131q133 -100 236.5 -157.5t163.5 -73.5q8 -2 7 -13.5t-7 -11.5h-336q-57 0 -197 100q-154 -125 -391 -125q-141 0 -237.5 41t-143.5 109t-47 143zM340 385 q0 -80 46 -150.5t132 -114.5t201 -44q118 0 196 53q-33 23 -88 68q-104 84 -209.5 187t-185.5 204q-92 -96 -92 -203zM475 1120q0 -160 113 -346q145 141 145 301q0 90 -42 141.5t-109 51.5q-57 0 -82 -37t-25 -111z" />
<glyph unicode="'" horiz-adv-x="307" d="M57 1241q-2 25 65.5 48.5t121.5 23.5q18 0 27.5 -5t7.5 -14l-129 -544q-4 -4 -18.5 -6.5t-14.5 4.5z" />
<glyph unicode="(" horiz-adv-x="632" d="M90 623q0 290 124 521.5t347 340.5q4 2 8 -3t0 -9q-129 -145 -189.5 -356.5t-60.5 -493.5q0 -283 60.5 -494t189.5 -356q4 -2 0 -8.5t-8 -4.5q-223 111 -347 341.5t-124 521.5z" />
<glyph unicode=")" horiz-adv-x="632" d="M63 -227q129 145 189.5 356t60.5 494t-60 493.5t-190 356.5q-4 2 0.5 8t8.5 4q223 -111 347 -341.5t124 -520.5q0 -291 -124 -522.5t-347 -340.5q-4 -2 -8.5 3.5t-0.5 9.5z" />
<glyph unicode="*" horiz-adv-x="917" d="M102 842l320 164l4 2q6 0 11 -5.5t3 -9.5l-112 -243q-3 -7 -17 -7q-27 0 -81 21.5t-96 47.5t-32 30zM131 1139q0 57 13.5 123.5t23.5 56.5l256 -254q4 -4 1 -12.5t-7 -5.5l-268 30q-18 4 -19 62zM410 1346q-4 23 76.5 44t136.5 21q25 0 22 -8l-162 -320q-2 -6 -11 -6 t-9 6zM475 985v2q0 4 8.5 9t10.5 3l196 -182q14 -12 -22.5 -62t-83.5 -92t-49 -30zM505 1040.5q-3 8.5 3 10.5l231 133q18 8 54 -42t63 -108.5t14 -56.5l-358 55q-4 0 -7 8.5z" />
<glyph unicode="+" horiz-adv-x="815" d="M59 391q0 18 2 32.5t7 14.5h288v287q0 4 16.5 7t35.5 3q18 0 33.5 -3t15.5 -7v-287h288q5 0 8 -15t3 -34q0 -18 -3 -34.5t-8 -16.5h-288v-287q0 -4 -18.5 -7t-39.5 -3q-43 0 -43 6v291h-286q-4 0 -7.5 16.5t-3.5 36.5z" />
<glyph unicode="," horiz-adv-x="454" d="M74 98q0 55 35.5 87t97.5 32q72 0 111.5 -55.5t39.5 -157.5q0 -92 -41 -171t-122 -159q-2 -2 -7 -2q-6 0 -10 6.5t0 10.5q100 102 101 241q0 57 -21 84q-18 -31 -76 -30q-49 0 -78.5 31.5t-29.5 82.5z" />
<glyph unicode="-" d="M55 377q0 49 6 49l535 96q4 2 7 -15.5t3 -37.5t-3 -37.5t-7 -19.5l-530 -97q-5 -2 -8 18.5t-3 43.5z" />
<glyph unicode="." horiz-adv-x="423" d="M90 102q0 53 34 86t91 33t89 -31.5t32 -87.5q0 -59 -32 -92t-89 -33t-91 34t-34 91z" />
<glyph unicode="/" horiz-adv-x="718" d="M53 -311l516 1806q4 8 51.5 -5t45.5 -24l-514 -1804q-5 -8 -53 5.5t-46 21.5z" />
<glyph unicode="0" horiz-adv-x="976" d="M53 399q0 121 56.5 216.5t156 148.5t226.5 53t225 -54t152.5 -150.5t54.5 -217.5t-55.5 -217t-154 -150.5t-222.5 -54.5q-127 0 -226.5 55.5t-156 153t-56.5 217.5zM272 422q0 -182 65.5 -294t174.5 -112q94 0 142 92.5t48 258.5q0 207 -64.5 307t-162.5 100 q-96 0 -149.5 -95t-53.5 -257z" />
<glyph unicode="1" horiz-adv-x="679" d="M63.5 618.5q-4.5 10.5 4.5 14.5l372 176q2 2 6 2q6 0 10.5 -5t4.5 -11v-629q0 -63 12 -92t49 -39t117 -10q6 0 6 -12.5t-6 -12.5q-74 0 -115 2l-162 2l-161 -2q-43 -2 -117 -2q-6 0 -6 12.5t6 12.5q80 0 118 10t52 39.5t14 91.5v360q0 66 -13 93.5t-48 27.5 q-33 0 -131 -39h-2q-6 0 -10.5 10.5z" />
<glyph unicode="2" horiz-adv-x="823" d="M70 37q0 12 6 18q178 164 260 247t115.5 142.5t33.5 120.5q0 76 -38.5 132.5t-110.5 56.5q-76 0 -124 -66.5t-97 -206.5q0 -2 -9 -2q-18 0 -16 6l90 351q0 4 8 4q6 0 11.5 -3t3.5 -6q-2 -10 -2 -24q0 -35 30 -35q18 0 62 14q88 31 162 31q113 0 176 -53t63 -141 q0 -106 -83 -193.5t-228 -189.5l-82 -62q-6 -6 -3 -10t13 -4q164 0 247 6t131 27.5t63 68.5q2 6 13 6t11 -6l-43 -243q0 -8 -5 -15.5t-13 -7.5h-627q-8 0 -13 12.5t-5 24.5z" />
<glyph unicode="3" horiz-adv-x="806" d="M57 535l76 299q4 4 8 4q6 0 12.5 -3.5t4.5 -5.5q-4 -16 -4 -22q0 -35 34 -35q25 0 70 16q49 14 84 21.5t80 7.5q123 0 191.5 -68.5t68.5 -164.5q0 -98 -60.5 -185.5t-166.5 -130.5q143 -22 215.5 -104t72.5 -189q0 -96 -68.5 -196.5t-210.5 -189.5t-353 -152 q-8 -2 -13.5 8t2.5 14q223 90 321.5 224.5t98.5 265.5q0 121 -61.5 193.5t-165.5 72.5q-41 0 -84 -12q-6 -2 -10 10t2 14q143 37 208.5 112t65.5 210q0 102 -30.5 156.5t-90.5 54.5q-86 0 -156.5 -59.5t-115.5 -172.5q0 -2 -8 -2q-18 0 -17 9z" />
<glyph unicode="4" horiz-adv-x="933" d="M53.5 24.5q-6.5 8.5 1.5 16.5l635 770q4 4 12 4q6 0 12.5 -3t6.5 -9v-709q41 0 139 4q6 1 6 -32q0 -23 -3 -43.5t-7 -20.5l-135 6v-284q0 -20 -16 -29l-162 -80q-12 -4 -13 -4q-6 0 -6 16v387q-123 2 -454 2q-10 0 -16.5 8.5zM182 100q-12 -14 11 -14q237 0 331 2v414z " />
<glyph unicode="5" horiz-adv-x="837" d="M119 367l65 364q2 14 6.5 17.5t20.5 5.5q258 31 346 43t113.5 25.5t36.5 43.5q2 6 13 5t9 -9l-41 -227q-6 -23 -18.5 -30t-38.5 -7l-389 -8q-27 0 -31 -29l-29 -160q287 -4 421 -105t134 -278q0 -117 -61.5 -212t-191.5 -184t-345 -185h-2q-8 0 -13 9t3 13 q221 125 310 252t89 273q0 170 -100 264t-287 94q-10 0 -16 7t-4 18z" />
<glyph unicode="6" horiz-adv-x="952" d="M76 424q0 193 90 378t259 330.5t394 221.5q8 2 12.5 -8.5t-2.5 -14.5q-176 -88 -298.5 -230.5t-184 -310t-61.5 -337.5q0 -119 29.5 -217.5t85 -155.5t126.5 -57q76 0 121 64.5t45 178.5q0 109 -43 173.5t-127 64.5q-37 0 -69.5 -13.5t-75.5 -44.5q-2 -2 -6 -2 q-6 0 -12.5 6.5t-4.5 10.5q119 129 279 129q133 0 200.5 -79t67.5 -185q0 -96 -57.5 -177t-156.5 -128.5t-216 -47.5q-182 0 -288.5 120t-106.5 331z" />
<glyph unicode="7" horiz-adv-x="878" d="M27 477l92 369q2 4 14 3t10 -5q-2 -8 -2 -21q0 -20 19.5 -26t79.5 -6h542q8 0 15.5 -9.5t3.5 -17.5l-439 -1198q-14 -37 -43 -49l-167 -80h-2q-6 0 -10.5 5t-2.5 9l533 1145q8 14 -8 14q-291 0 -404 -8t-150.5 -34.5t-56.5 -96.5q-4 -4 -10 -4t-11 3t-3 7z" />
<glyph unicode="8" horiz-adv-x="1001" d="M76 313q0 109 69.5 205t190.5 158q-135 111 -135 242q0 88 49 145t124 85t152 28q92 0 163 -32t108 -81t37 -100q0 -66 -52.5 -135.5t-144.5 -112.5l12 -8q96 -60 156.5 -107t101.5 -112.5t41 -151.5q0 -104 -61.5 -187t-166 -129.5t-226.5 -46.5q-123 0 -218.5 46.5 t-147.5 124t-52 169.5zM287 369q0 -92 33.5 -173t94 -129.5t134.5 -48.5q96 0 153.5 70t57.5 166q0 70 -34 124t-85 92t-135 89l-35 23q-43 27 -90 59q-43 -51 -68.5 -123t-25.5 -149zM381 999q0 -78 57.5 -137t171.5 -133q49 121 49 199q0 90 -45 147.5t-108 57.5 q-57 0 -91 -38t-34 -96z" />
<glyph unicode="9" horiz-adv-x="952" d="M53 498q0 141 106.5 230t278.5 89q203 0 321 -125t118 -340q0 -184 -89.5 -368.5t-257.5 -331t-397 -215.5q-6 -2 -11 8t3 14q174 80 297 222.5t184.5 309.5t61.5 324q0 104 -26 210t-84 177.5t-148 71.5q-150 0 -150 -225q0 -119 43 -187.5t129 -68.5q37 0 71 14.5 t75 48.5q2 2 6 2q6 0 11 -6t3 -10q-47 -63 -114.5 -96t-147.5 -33q-96 0 -160.5 43t-93.5 107.5t-29 134.5z" />
<glyph unicode=":" horiz-adv-x="423" d="M90 102q0 53 34 86t91 33t89 -31.5t32 -87.5q0 -59 -32 -92t-89 -33t-91 34t-34 91zM90 677q0 53 34 86t91 33t89 -31.5t32 -87.5q0 -59 -32 -92t-89 -33t-91 34t-34 91z" />
<glyph unicode=";" horiz-adv-x="475" d="M92 98q0 55 35.5 87t97.5 32q72 0 111.5 -55.5t39.5 -157.5q0 -92 -41 -171t-122 -159q-2 -2 -7 -2q-6 0 -10 6.5t0 10.5q100 102 101 241q0 57 -21 84q-18 -31 -76 -30q-49 0 -78.5 31.5t-29.5 82.5zM94 677q0 53 34 86t91 33t89 -31.5t32 -87.5q0 -59 -32 -92t-89 -33 t-91 34t-34 91z" />
<glyph unicode="&#x3c;" horiz-adv-x="833" d="M63 389q0 31 11 35l684 301q6 4 10 -8t4 -33q0 -49 -14 -57l-557 -238l557 -237q14 -7 14 -58q0 -49 -14 -43l-684 303q-10 6 -11 35z" />
<glyph unicode="=" horiz-adv-x="958" d="M59 248q0 16 3.5 30.5t5.5 14.5h821q4 0 7 -15.5t3 -31.5q0 -18 -3 -33.5t-7 -15.5h-819q-4 0 -7.5 16t-3.5 35zM59 535q0 16 3.5 30.5t5.5 14.5h821q4 0 7 -15.5t3 -32.5q0 -18 -3 -33.5t-7 -15.5h-819q-4 0 -7.5 16.5t-3.5 35.5z" />
<glyph unicode="&#x3e;" horiz-adv-x="833" d="M61 92q0 18 4.5 36.5t10.5 21.5l557 237l-557 238q-6 4 -10.5 21.5t-4.5 35.5q0 20 4.5 33.5t10.5 9.5l684 -303q10 -4 10 -35q0 -29 -10 -35l-684 -301q-6 -2 -10.5 10.5t-4.5 30.5z" />
<glyph unicode="?" horiz-adv-x="694" d="M61 1112q0 72 79 120t198 48q133 0 224 -63.5t91 -180.5q0 -78 -39 -128t-114 -111l-45 -37q-63 -55 -92 -115.5t-29 -136.5q0 -31 10 -109q4 -6 -12.5 -10t-20.5 2q-25 55 -39 127t-14 121q0 61 19.5 101t58.5 89q43 53 66.5 103.5t23.5 130.5q0 78 -23.5 128t-64.5 50 q-29 0 -41 -22.5t-16 -61.5q-4 -57 -28 -99t-89 -42q-53 0 -78 28.5t-25 67.5zM188 102q0 53 34 86t91 33t89 -31.5t32 -87.5q0 -59 -31.5 -92t-89.5 -33q-57 0 -91 34t-34 91z" />
<glyph unicode="@" horiz-adv-x="1492" d="M131 358q0 195 97.5 348.5t259 238.5t346.5 85q164 0 288.5 -66.5t193 -176t68.5 -238.5q0 -119 -57 -218.5t-155.5 -157.5t-215.5 -58q-133 0 -133 121q0 33 8 65l5 14q-70 -94 -149 -149t-148 -55q-51 0 -85 32.5t-34 104.5q0 12 4 45q16 111 87 213t166 166.5 t179 64.5q31 0 58.5 -12t43.5 -37q57 23 70 64q4 4 12 4t14.5 -2t8.5 -4l-84 -459q-4 -16 -4 -47q0 -76 76 -76q49 0 100 36t86 107.5t35 171.5q0 137 -66.5 252t-182.5 181.5t-261 66.5q-156 0 -269.5 -77t-174 -208t-60.5 -286q0 -168 69.5 -294t196.5 -194.5t297 -68.5 q96 0 177 22.5t165 81.5h2q6 0 11.5 -7t-0.5 -9q-106 -90 -211 -125t-217 -35q-172 0 -312.5 68.5t-222.5 198.5t-82 308zM596 317q0 -33 11 -54t34 -21q39 0 89 48t93 123.5t58 149.5q4 29 4 41q0 39 -13.5 62.5t-37.5 23.5q-72 0 -137.5 -88t-90.5 -205q-10 -45 -10 -80z " />
<glyph unicode="A" horiz-adv-x="1466" d="M-16 12.5q0 12.5 8 12.5q57 0 96 23.5t78 84t92 178.5l444 977q4 6 19 6q16 0 18 -6l512 -1007q72 -145 119 -200.5t98 -55.5q11 0 11 -12.5t-11 -12.5q-41 0 -127 4q-90 4 -129 4q-51 0 -125 -4q-70 -4 -110 -4q-8 0 -8 12.5t8 12.5q53 0 76.5 11t23.5 40q0 35 -41 117 l-213 419h-364l-146 -321q-26 -57 -26 -107q0 -78 52 -118.5t140 -40.5q10 0 10 -12.5t-10 -12.5q-37 0 -106 4q-78 4 -135 4q-55 0 -134 -4q-70 -4 -112 -4q-8 0 -8 12.5zM485 670h310l-164 323z" />
<glyph unicode="B" horiz-adv-x="1218" d="M78 12.5q0 12.5 6 12.5q59 0 90 11t44 40.5t13 89.5v948q0 86 -28.5 113.5t-116.5 27.5q-4 0 -4 12.5t4 12.5l109 -2q94 -4 149 -4q57 0 119 6q20 2 61 4t72 2q186 0 288.5 -67.5t102.5 -196.5q0 -98 -64.5 -178t-185.5 -125q172 -21 273.5 -115t101.5 -233 q0 -106 -61.5 -192.5t-170 -136.5t-241.5 -50q-57 0 -131 6q-29 2 -71 4t-93 2l-149 -2q-41 -2 -111 -2q-6 0 -6 12.5zM461 166q0 -68 26.5 -95.5t116.5 -27.5q268 0 268 279q0 158 -75.5 250t-229.5 92q-59 0 -106 -5v-493zM461 721l82 -2q106 0 163.5 80t57.5 205 q0 117 -51 177t-148 60q-59 0 -81.5 -27.5t-22.5 -103.5v-389z" />
<glyph unicode="C" horiz-adv-x="1370" d="M100 645q0 195 105.5 344.5t281 231.5t375.5 82q90 0 188.5 -15.5t153.5 -40.5q18 -6 23.5 -15t9.5 -32l25 -285q0 -6 -10.5 -8t-12.5 6q-70 162 -186.5 250t-270.5 88q-203 0 -313.5 -149.5t-110.5 -401.5q0 -188 60.5 -343.5t170 -247t249.5 -91.5q131 0 234.5 87.5 t184.5 265.5q2 8 13.5 6t11.5 -8l-31 -279q-4 -25 -9 -32t-23 -15q-182 -68 -375 -68q-250 0 -418 99.5t-247 252t-79 318.5z" />
<glyph unicode="D" horiz-adv-x="1443" d="M57 12.5q0 12.5 4 12.5q66 0 96.5 10t42 39.5t11.5 91.5v948q0 61 -11.5 90t-41 40t-92.5 11q-6 0 -6.5 12.5t6.5 12.5l108 -2q94 -4 150 -4q84 0 172 6q106 4 143 4q207 0 367.5 -82t248.5 -223t88 -317q0 -199 -91 -351.5t-245.5 -235.5t-338.5 -83q-66 0 -156 6 q-33 2 -81 4t-107 2l-152 -2q-41 -2 -111 -2q-4 0 -4 12.5zM438 188q0 -82 43 -115.5t166 -33.5q131 0 231.5 66.5t157 197.5t56.5 313q0 174 -53.5 316.5t-152 224.5t-227.5 82q-127 0 -174 -24.5t-47 -104.5v-922z" />
<glyph unicode="E" horiz-adv-x="1130" d="M78 12.5q0 12.5 6 12.5q66 0 95.5 10t39.5 39.5t10 91.5v948q0 61 -10 90t-41 40t-94 11q-6 0 -6 12.5t6 12.5h868q20 0 21 -18l4 -273q0 -4 -11.5 -6t-13.5 4q-33 119 -110.5 176.5t-204.5 57.5h-62q-61 0 -89.5 -27t-28.5 -82v-418h170q119 0 182 41t63 115q0 6 11.5 6 t11.5 -6l-2 -184l2 -99q4 -70 4 -110q0 -4 -12.5 -4t-12.5 4q0 84 -64.5 132t-184.5 48h-168v-463q0 -59 22.5 -88t71.5 -29h67q160 0 256.5 65.5t141.5 203.5q0 4 8 4q6 0 11 -3t5 -5q-20 -160 -20 -291q0 -16 -6 -23.5t-25 -7.5h-905q-6 0 -6 12.5z" />
<glyph unicode="F" horiz-adv-x="1069" d="M63.5 12.5q-0.5 12.5 6.5 12.5q72 0 104.5 10t43.5 39.5t11 91.5v948q0 61 -10 90t-41 40t-94 11q-6 0 -6 12.5t6 12.5h868q20 0 21 -18l4 -273q0 -4 -11.5 -6t-13.5 4q-33 119 -110.5 176.5t-204.5 57.5h-62q-61 0 -89.5 -27t-28.5 -82v-442h147q119 0 181.5 42 t62.5 115q0 4 12 4t12 -4l-2 -186q0 -66 2 -98l2 -109q0 -6 -12 -6t-12 6q0 82 -64.5 130t-183.5 48h-145v-438q0 -63 16 -94t61.5 -43t141.5 -12q4 0 4 -12.5t-4 -12.5q-84 0 -131 2l-209 2l-154 -2q-41 -2 -112 -2q-6 0 -6.5 12.5z" />
<glyph unicode="G" horiz-adv-x="1472" d="M100 627q0 197 101.5 351.5t278.5 239.5t397 85q96 0 194 -15.5t158 -40.5q18 -6 23 -15t8 -32l26 -285q0 -6 -10 -8t-14 6q-72 158 -198 246t-288 88q-209 0 -318.5 -145.5t-109.5 -396.5q0 -203 69.5 -362t193.5 -246t278 -87q84 0 129 18.5t65.5 72t20.5 157.5 q0 106 -12.5 148.5t-52.5 56.5t-138 14q-12 0 -12 17q0 6 3 11t7 5q174 -10 281 -10q104 0 217 6q4 0 7 -5t3 -9q0 -14 -10 -15q-37 2 -51.5 -13t-18.5 -61.5t-4 -164.5q0 -92 7 -131t7 -50q0 -12 -5 -16t-19 -8q-264 -57 -475 -58q-226 0 -394 86t-256 234.5t-88 331.5z " />
<glyph unicode="H" horiz-adv-x="1564" d="M57 12.5q0 12.5 4 12.5q72 0 105 10t45 39.5t12 91.5v948q0 61 -12 90t-44 40t-101 11q-6 0 -6.5 12.5t6.5 12.5l110 -2q94 -4 152 -4q78 0 180 4l113 2q4 0 4 -12.5t-4 -12.5q-74 0 -109 -12t-48 -42t-13 -91v-416h661v416q0 61 -12.5 91t-47 42t-110.5 12q-6 0 -6 12.5 t6 12.5l100 -2q102 -4 185 -4q55 0 157 4l115 2q6 0 6 -12.5t-6 -12.5q-70 0 -103.5 -11t-45 -39.5t-11.5 -90.5v-948q0 -61 11.5 -91t44 -40t104.5 -10q6 0 6 -12.5t-6 -12.5q-72 0 -115 2l-157 2l-185 -2q-37 -2 -100 -2q-6 0 -6 12.5t6 12.5q76 0 110.5 10t47 38.5 t12.5 92.5v471h-661v-471q0 -61 12 -91t47 -40t111 -10q4 0 4 -12.5t-4 -12.5q-72 0 -115 2l-178 2l-154 -2q-41 -2 -113 -2q-4 0 -4 12.5z" />
<glyph unicode="I" horiz-adv-x="700" d="M82 12.5q0 12.5 4 12.5q66 0 96.5 10t42 39.5t11.5 91.5v948q0 61 -11.5 90t-42 40t-96.5 11q-4 0 -4 12.5t4 12.5l111 -2q94 -4 151 -4q63 0 158 4l104 2q6 0 6 -12.5t-6 -12.5q-63 0 -94 -12t-41 -42t-10 -91v-944q0 -64 10 -92.5t40 -38.5t95 -10q6 0 6 -12.5 t-6 -12.5q-68 0 -106 2l-156 2l-151 -2q-41 -2 -111 -2q-4 0 -4 12.5z" />
<glyph unicode="J" horiz-adv-x="694" d="M-117 -373q0 41 27 73t80 32q51 0 78.5 -31t50.5 -86q12 -33 24.5 -50.5t30.5 -17.5q43 0 63.5 70t20.5 231v1266q0 61 -13.5 90t-48 40t-110.5 11q-4 0 -4 12.5t4 12.5l127 -2q98 -4 158 -4q57 0 143 4l96 2q6 0 6 -12.5t-6 -12.5q-53 0 -78.5 -12t-34 -42t-8.5 -91 v-1118q0 -229 -113.5 -358.5t-316.5 -129.5q-78 0 -127 33t-49 90z" />
<glyph unicode="K" horiz-adv-x="1341" d="M57 12.5q0 12.5 4 12.5q66 0 96.5 10t42 39.5t11.5 91.5v948q0 61 -11.5 90t-41 40t-92.5 11q-6 0 -6.5 12.5t6.5 12.5l108 -2q94 -4 150 -4q61 0 155 4l105 2q6 0 6 -12.5t-6 -12.5q-63 0 -93 -12t-41.5 -42t-11.5 -91v-434l385 393q59 59 60 109q0 37 -33 57t-92 20 q-6 0 -6 12.5t6 12.5l96 -2q90 -4 168 -4q84 0 174 4l92 2q6 0 6 -12.5t-6 -12.5q-94 0 -206.5 -54t-204.5 -144l-232 -236l303 -409q133 -190 199.5 -269.5t107.5 -98.5t105 -19q6 0 6 -12.5t-6 -12.5h-230q-33 0 -55 -2t-37 -2q-33 0 -56.5 15.5t-57 56.5t-119.5 157 q-10 14 -23.5 31.5t-29.5 40.5l-269 360l-45 -45v-446q0 -63 10.5 -92t40 -39t95.5 -10q8 0 8 -12.5t-8 -12.5q-68 0 -107 2l-153 2l-152 -2q-41 -2 -111 -2q-4 0 -4 12.5z" />
<glyph unicode="L" horiz-adv-x="1116" d="M57 12.5q0 12.5 4 12.5q66 0 95.5 10t41 39.5t11.5 91.5v948q0 61 -11.5 90t-42 40t-94.5 11q-4 0 -4 12.5t4 12.5l105 -2q94 -4 156 -4q61 0 155 4l105 2q6 0 6 -12.5t-6 -12.5q-63 0 -94 -11t-41.5 -40.5t-10.5 -91.5v-938q0 -53 8.5 -76.5t32 -32t76.5 -8.5h70 q160 0 276.5 85t155.5 231q0 4 8 4q4 0 9 -3t5 -5q-18 -203 -18 -338q0 -16 -7.5 -23.5t-23.5 -7.5h-967q-4 0 -4 12.5z" />
<glyph unicode="M" horiz-adv-x="1755" d="M49 12.5q0 12.5 6 12.5q84 0 133.5 63.5t51.5 171.5l18 848l-2 2q-41 76 -85 110.5t-101 34.5q-6 0 -6.5 12.5t6.5 12.5l96 -2q29 -2 74 -2l108 2q18 2 47 2q27 0 41.5 -18.5t52.5 -87.5l447 -838l389 893q12 29 25.5 40t35.5 11q18 0 42 -2t55 -2l121 2q29 2 82 2 q6 0 6 -12.5t-6 -12.5q-96 -1 -140 -39q-40 -35 -39 -106v-14l49 -930q4 -63 15.5 -92t41 -39t93.5 -10q4 0 4 -12.5t-4 -12.5q-70 0 -111 2l-151 2l-154 -2q-39 -2 -106 -2q-6 0 -6 12.5t6 12.5q86 0 116.5 20.5t30.5 85.5l-2 35l-43 838l-422 -990q-4 -8 -16 -8t-17 8 l-518 985l-16 -739v-9q0 -104 44 -164q46 -62 130 -62q6 0 6 -12.5t-6 -12.5q-55 0 -86 2l-113 2l-129 -2q-33 -2 -88 -2q-6 0 -6 12.5z" />
<glyph unicode="N" horiz-adv-x="1505" d="M41 1267.5q0 12.5 4 12.5l86 -2q27 -2 78 -2l156 2q29 2 69 2q16 0 24.5 -8t28.5 -35q35 -47 50 -63l708 -818v662q0 111 -45 174t-125 63q-4 0 -4 12.5t4 12.5l88 -2q66 -4 111 -4q41 0 115 4l92 2q4 0 4 -12.5t-4 -12.5q-82 0 -129 -64.5t-47 -172.5v-1049 q0 -6 -9.5 -8t-13.5 2l-960 1094v-797q0 -109 45 -172t125 -63q4 0 4 -12.5t-4 -12.5q-57 0 -89 2l-110 2l-127 -2q-35 -2 -100 -2q-6 0 -6.5 12.5t6.5 12.5q90 0 142 63.5t52 171.5v866q-68 74 -116 101.5t-99 27.5q-4 0 -4 12.5z" />
<glyph unicode="O" horiz-adv-x="1568" d="M100 639q0 211 106.5 361.5t273.5 226.5t341 76q195 0 342.5 -91.5t226 -241t78.5 -317.5q0 -186 -98 -341.5t-263 -246t-357 -90.5q-191 0 -339.5 89.5t-229.5 242t-81 332.5zM352 715q0 -199 60.5 -355.5t166 -244.5t238.5 -88q115 0 206 66.5t142.5 194.5t51.5 306 q0 188 -57.5 336.5t-166 232.5t-254.5 84q-186 0 -286.5 -140t-100.5 -392z" />
<glyph unicode="P" horiz-adv-x="1132" d="M63.5 12.5q-0.5 12.5 6.5 12.5q66 0 95.5 10t39.5 39.5t10 91.5v948q0 61 -10 90t-41 40t-94 11q-6 0 -6.5 12.5t6.5 12.5l108 -2q94 -4 150 -4q49 0 116 6q27 2 68 4t94 2q209 0 330 -87t121 -269q0 -127 -65.5 -215t-169 -133t-212.5 -45q-55 0 -96 10q-4 0 -4 10 q0 6 3 12t7 4q31 -8 70 -8q94 0 156.5 88t62.5 250t-68.5 250t-199.5 88q-57 0 -78 -26.5t-21 -104.5v-936q0 -65 14.5 -95t54.5 -42t128 -12q6 0 6 -12.5t-6 -12.5q-84 0 -131 2l-178 2l-150 -2q-41 -2 -110 -2q-6 0 -6.5 12.5z" />
<glyph unicode="Q" horiz-adv-x="1568" d="M100 639q0 211 106.5 361.5t273.5 226.5t341 76q195 0 342.5 -91.5t226 -241t78.5 -317.5q0 -215 -128 -387t-332 -246q80 -172 205.5 -281.5t240.5 -109.5q35 0 72 4q6 2 9 -8t-1 -12q-84 -25 -166 -25q-158 0 -326 102.5t-288 284.5h-4q-190 0 -339 89.5t-230 242 t-81 332.5zM352 715q0 -199 60.5 -355.5t166 -244.5t238.5 -88q115 0 206 66.5t142.5 194.5t51.5 306q0 188 -57.5 336.5t-166 232.5t-254.5 84q-186 0 -286.5 -140t-100.5 -392z" />
<glyph unicode="R" horiz-adv-x="1429" d="M78 12.5q0 12.5 6 12.5q66 0 95.5 10t40.5 39.5t11 91.5v948q0 61 -10 90t-40.5 40t-94.5 11q-4 0 -4 12.5t4 12.5l109 -2q94 -4 149 -4q59 0 131 6q23 2 58.5 4t84.5 2q188 0 292 -68.5t104 -191.5q0 -94 -57.5 -180t-149.5 -139q164 -258 275.5 -403.5t198.5 -212 t169 -66.5q4 0 4 -12.5t-4 -12.5h-365q-45 0 -167.5 169t-296.5 472q-16 -2 -48 -2q-80 0 -112 2v-475q0 -63 10 -92t40 -39t95 -10q4 0 4 -12.5t-4 -12.5q-68 0 -106 2l-156 2l-149 -2q-41 -2 -111 -2q-6 0 -6 12.5zM461 700q49 -8 119 -8q74 0 116.5 22.5t62 78 t19.5 155.5q0 168 -49 231.5t-141 63.5q-70 0 -98.5 -30.5t-28.5 -102.5v-410z" />
<glyph unicode="S" horiz-adv-x="1054" d="M152 422v2q0 8 10 9t12 -7q61 -125 107.5 -203t117 -137t160.5 -59q82 0 135.5 44t53.5 150q0 90 -40 157.5t-97.5 115t-157.5 112.5q-98 63 -152.5 108.5t-93.5 109t-39 149.5q0 109 62.5 183.5t160.5 110.5t207 36q72 0 145.5 -13.5t118.5 -32.5q18 -8 24.5 -17 t6.5 -23v-302q0 -6 -10.5 -9t-12.5 3l-16 39q-51 129 -119.5 219t-191.5 90q-82 0 -134.5 -47t-52.5 -137q0 -74 38 -131t93.5 -100t149.5 -105q102 -66 163.5 -115t104.5 -119.5t43 -162.5q0 -106 -57 -189t-158.5 -129.5t-226.5 -46.5q-92 0 -192.5 26t-135.5 56 q-10 8 -15 15.5t-5 23.5z" />
<glyph unicode="T" horiz-adv-x="1316" d="M82 918q8 82 18.5 212t10.5 195q0 10 11 10t11 -10q0 -45 117 -45q176 -6 412 -6q121 0 256 4l139 2q78 0 113.5 10t46.5 41q2 8 13 8t11 -8q-6 -61 -13 -196.5t-7 -216.5q0 -6 -10.5 -6.5t-12.5 6.5q-31 158 -115 236.5t-206 78.5q-59 0 -79 -25.5t-20 -97.5v-944 q0 -63 12.5 -92t47 -39t110.5 -10q6 0 6 -12.5t-6 -12.5q-74 0 -117 2l-169 2l-166 -2q-43 -2 -119 -2q-6 0 -6 12.5t6 12.5q74 0 109.5 10t49 39.5t13.5 91.5v948q0 70 -18.5 94.5t-75.5 24.5q-245 -1 -351 -318q-2 -6 -12 -5t-10 8z" />
<glyph unicode="U" horiz-adv-x="1439" d="M59.5 1267.5q-0.5 12.5 6.5 12.5l108 -2q94 -4 150 -4q61 0 155 4l105 2q6 0 6 -12.5t-6 -12.5q-63 0 -93 -12t-41.5 -42t-11.5 -91v-586q0 -244 96.5 -360.5t272.5 -116.5q170 0 266 103.5t96 295.5v572q0 110 -50 173.5t-140 63.5q-4 0 -4 12.5t4 12.5l98 -2 q78 -4 125 -4q39 0 113 4l94 2q4 0 4 -12.5t-4 -12.5q-80 0 -125 -63.5t-45 -173.5v-569q0 -143 -63.5 -252t-179 -167.5t-267.5 -58.5t-268.5 57.5t-183 167t-66.5 257.5v661q0 61 -11.5 90t-41 40t-92.5 11q-6 0 -6.5 12.5z" />
<glyph unicode="V" horiz-adv-x="1351" d="M4 1267.5q0 12.5 6 12.5q31 0 43 -2q41 -4 107 -4q176 0 299 4q33 2 82 2q6 0 6 -12.5t-6 -12.5q-61 0 -95 -25.5t-34 -72.5q0 -35 22 -84l354 -756l267 703q20 57 20 98q0 63 -38 100t-109 37q-6 0 -6 12.5t6 12.5l100 -2q86 -4 154 -4q39 0 96 4l84 2q6 0 6 -12.5 t-6 -12.5q-74 0 -141.5 -65.5t-108.5 -175.5l-379 -1012q-2 -8 -22 -8t-23 8l-522 1108q-37 74 -74 109.5t-82 35.5q-6 0 -6 12.5z" />
<glyph unicode="W" horiz-adv-x="1865" d="M4 1267.5q0 12.5 6 12.5q31 0 43 -2q41 -4 107 -4q137 0 231 4q27 2 66 2q6 0 6 -12.5t-6 -12.5q-51 0 -73 -10t-22 -37q0 -35 48 -135l368 -782l129 338l-227 481q-35 74 -65.5 109.5t-65.5 35.5q-6 0 -6 12.5t6 12.5q20 0 48 -3t79 -3q117 0 194 4q20 2 54 2 q6 0 6 -12.5t-6 -12.5q-29 0 -42.5 -7t-13.5 -25q0 -35 56 -150l90 -190l51 137q45 117 45 176t-51 59q-6 0 -6 12.5t6 12.5q16 0 35.5 -3t97.5 -3q35 0 84 4l76 2q4 0 4 -12.5t-4 -12.5q-137 0 -228 -241l-75 -203l245 -518l265 706q24 63 24 115q0 67 -31.5 104t-85.5 37 q-6 0 -6 12.5t6 12.5l95 -2q74 -4 135 -4q41 0 94 4l88 2q4 0 4 -12.5t-4 -12.5q-76 0 -142.5 -64.5t-109.5 -176.5l-379 -1012q-2 -8 -22 -8t-23 8l-262 555l-207 -555q-2 -8 -22 -8t-23 8l-522 1108q-31 66 -50.5 94.5t-43 39.5t-62.5 11q-6 0 -6 12.5z" />
<glyph unicode="X" horiz-adv-x="1325" d="M4 12.5q0 12.5 6 12.5q63 0 155.5 67.5t192.5 206.5l209 283l-327 510q-55 88 -106.5 125.5t-108.5 37.5q-6 0 -6.5 12.5t6.5 12.5l88 -2q57 -4 86 -4q72 0 178 4l117 2q4 0 4 -12.5t-4 -12.5q-70 0 -70 -34q0 -16 18 -47l271 -416l164 233q79 114 79 183q0 81 -103 81 h-3q-4 0 -4 12.5t4 12.5l102 -2q82 -4 152 -4q43 0 96 4l86 2q6 0 6 -12.5t-6 -12.5q-66 0 -157 -68.5t-193 -207.5l-195 -266l351 -543q51 -76 104 -110.5t123 -34.5q6 0 6 -12.5t-6 -12.5q-59 0 -92 2l-123 2l-168 -2q-39 -2 -109 -2q-6 0 -6 12.5t6 12.5q68 0 68 34 q0 18 -18 45l-281 435l-176 -252q-80 -113 -80 -183q0 -79 103 -79h3q4 0 4.5 -12.5t-4.5 -12.5q-68 0 -102 2l-151 2l-97 -2q-27 -2 -86 -2q-6 0 -6 12.5z" />
<glyph unicode="Y" horiz-adv-x="1267" d="M4 1267.5q0 12.5 6 12.5l64 -2q45 -4 63 -4q72 0 207 4l135 2q4 0 4 -12.5t-4 -12.5q-35 0 -54 -16t-19 -43q0 -33 28 -78l281 -442l188 321q55 92 55 158q0 49 -29.5 74.5t-84.5 25.5q-6 0 -6 12.5t6 12.5l108 -2q94 -4 168 -4q35 0 84 4l76 2q4 0 4 -12.5t-4 -12.5 q-63 0 -155.5 -78.5t-163.5 -197.5l-213 -356v-457q0 -63 10 -92t39.5 -39t95.5 -10q6 0 6 -12.5t-6 -12.5q-68 0 -107 2l-153 2l-152 -2q-41 -2 -110 -2q-4 0 -4 12.5t4 12.5q66 0 96.5 10t41.5 39.5t11 91.5v414l-299 464q-76 119 -126 165t-85 46q-6 0 -6 12.5z" />
<glyph unicode="Z" horiz-adv-x="1239" d="M117 985l82 356q0 2 8 2q20 0 16 -6q-2 -6 -2 -16q0 -25 23.5 -33t95.5 -8h747q10 0 15.5 -10t-0.5 -17l-709 -1198q-8 -10 -6 -13t14 -3h414q74 0 143.5 38t118.5 101.5t62 134.5q2 6 12 6t10 -6l-28 -297q0 -6 -5.5 -13t-13.5 -7q-305 4 -981 4q-8 0 -12 9t2 18 l719 1202q6 10 5 13t-16 3q-233 0 -355 -17.5t-199.5 -73.5t-135.5 -175q-2 -2 -8 -2q-18 0 -16 8z" />
<glyph unicode="[" horiz-adv-x="561" d="M137 -217v1681q0 14 3 17.5t16 3.5h327q6 0 6 -12.5t-6 -12.5q-63 0 -94 -12t-41 -42t-10 -91v-1385q0 -61 10 -90.5t41 -42t94 -12.5q6 0 6 -12.5t-6 -12.5h-327q-12 0 -15.5 4.5t-3.5 18.5z" />
<glyph unicode="\" horiz-adv-x="718" d="M53 1466q-2 10 45 23.5t52 5.5l516 -1806q2 -8 -46.5 -21.5t-52.5 -5.5z" />
<glyph unicode="]" horiz-adv-x="561" d="M72 -227.5q0 12.5 6 12.5q63 0 94 12.5t41 42t10 90.5v1385q0 61 -10 91t-41 42t-94 12q-6 0 -6 12.5t6 12.5h328q12 0 15 -3t3 -18v-1681q0 -14 -3 -18.5t-15 -4.5h-328q-6 0 -6 12.5z" />
<glyph unicode="^" horiz-adv-x="802" d="M119 778l260 510q2 10 22 10t23 -10l258 -510v-2q0 -4 -8 -8t-10 0l-263 274l-262 -274q-2 -2 -6 -2q-6 0 -11 4t-3 8z" />
<glyph unicode="_" horiz-adv-x="815" d="M59 -113q0 18 2 32.5t7 14.5h677q4 0 7.5 -16t3.5 -35q0 -18 -3 -33.5t-8 -15.5h-675q-4 0 -7.5 16.5t-3.5 36.5z" />
<glyph unicode="`" horiz-adv-x="436" d="M47 1489q-2 8 29 8q45 0 108.5 -11t65.5 -20l65 -491q0 -4 -9 -7t-11 3z" />
<glyph unicode="a" horiz-adv-x="862" d="M82 117q0 47 23.5 75.5t67.5 48t140 52.5l209 67v162q0 123 -24.5 181.5t-79.5 58.5q-49 0 -78 -37t-35 -121q-12 -115 -121 -115q-96 0 -96 84q0 55 69.5 110.5t168 90.5t172.5 35q96 0 156.5 -57.5t60.5 -167.5v-363q0 -59 21.5 -92t60.5 -33q29 0 59 15h2q8 0 11 -9.5 t-5 -13.5l-211 -100q-8 -4 -20 -4q-31 0 -60.5 30.5t-42.5 83.5l-94 -51q-53 -27 -110.5 -44t-102.5 -17q-66 0 -103.5 33.5t-37.5 97.5zM307 180q0 -43 24.5 -67.5t61.5 -24.5q45 0 105 29l26 14q-2 14 -2 43v152l-112 -41q-55 -20 -79 -45t-24 -60z" />
<glyph unicode="b" horiz-adv-x="1056" d="M14 1341l299 142l11 2q10 0 21 -9.5t11 -17.5v-778q68 63 137.5 100t157.5 37q92 0 170 -43t124 -129t46 -209q0 -147 -62.5 -251.5t-163.5 -158t-216 -53.5q-78 0 -152.5 25t-136.5 72l-186 -84h-4q-8 0 -10.5 8t6.5 10q49 29 74.5 79t25.5 128v995q0 72 -13.5 102.5 t-48.5 30.5q-27 0 -75 -22h-2q-8 0 -12.5 11t-0.5 13zM356 338q0 -113 39 -185.5t94.5 -105.5t108.5 -33q88 0 135 90.5t47 251.5q0 178 -59 265.5t-166 87.5q-96 0 -199 -70v-301z" />
<glyph unicode="c" horiz-adv-x="870" d="M66 381q0 129 71.5 226.5t183 149.5t228.5 52q98 0 177 -41t79 -113q0 -39 -30 -66.5t-83 -27.5q-49 0 -77.5 25.5t-47.5 79.5q-18 57 -35.5 78.5t-62.5 21.5q-88 0 -140.5 -87t-52.5 -230q0 -170 76 -271.5t242 -101.5q55 0 95 12t102 41h2q6 0 11 -6t1 -10 q-76 -70 -151.5 -104t-174.5 -34q-135 0 -228 58.5t-139 152t-46 195.5z" />
<glyph unicode="d" horiz-adv-x="1044" d="M66 373q0 156 72.5 255t180 144t216.5 45q76 0 159 -24v413q0 72 -13 102.5t-46 30.5q-27 0 -76 -22h-2q-8 0 -13 11t-1 13l301 142l8 2q10 0 22.5 -9.5t12.5 -17.5v-1220q0 -70 13 -98.5t44 -28.5q27 0 84 22h2q6 0 11.5 -10t0.5 -12l-282 -138l-10 -2q-18 0 -34 39 t-20 107q-152 -143 -309 -144q-90 0 -162.5 47.5t-115.5 138.5t-43 214zM276 438q0 -172 61.5 -269t162.5 -97q102 0 194 86v10v498q-37 51 -83 74.5t-107 23.5q-111 0 -169.5 -77t-58.5 -249z" />
<glyph unicode="e" horiz-adv-x="856" d="M66 371q0 119 61 220t167.5 159.5t237.5 58.5q127 0 195 -54.5t68 -148.5q0 -59 -23 -59h-125l-368 -4q-6 -39 -7 -86q0 -176 83 -278.5t229 -102.5q51 0 106 14t101 43l4 2q4 0 9 -8t1 -12q-76 -74 -154 -107t-170 -33q-129 0 -223 54.5t-143 145.5t-49 196zM285 584 l290 6q-6 178 -118 178q-62 0 -107 -49t-65 -135z" />
<glyph unicode="f" horiz-adv-x="624" d="M41 748q0 18 6 18q72 0 98.5 19.5t28.5 70.5q10 334 127 482.5t352 148.5q115 0 178.5 -32t63.5 -89q0 -47 -32 -73.5t-72 -26.5q-49 0 -72 22.5t-41 65.5t-39 64.5t-66 21.5q-94 0 -148 -131t-54 -410v-125q63 2 225 19q6 0 10 -15.5t4 -34.5q0 -20 -7 -39.5t-13 -17.5 q-98 25 -219 31v-551q0 -63 12 -92t50 -39t120 -10q8 0 8 -12.5t-8 -12.5l-141 2q-47 2 -140 2l-125 -2q-33 -2 -92 -2q-8 0 -8 12.5t8 12.5q53 0 79 10t35 39.5t9 91.5v461q0 63 -26.5 82.5t-104.5 19.5q-6 0 -6 19z" />
<glyph unicode="g" horiz-adv-x="923" d="M29 -342q0 70 45 143.5t168 161.5q-61 18 -95 53t-34 95q0 51 40 105t123 101q-90 31 -139 94.5t-49 137.5q0 82 53.5 139t135 87t163.5 30q137 0 228 -68q55 37 108 55.5t115 18.5q16 0 16 -57q0 -29 -8 -64t-14 -28q-84 34 -150 34h-4h-16q53 -63 53 -143 q0 -78 -52 -136.5t-134 -89t-168 -30.5q-55 0 -105 12q-41 -33 -41 -84q0 -45 34 -69.5t83 -37t139 -28.5q121 -20 192.5 -40.5t124 -70t52.5 -139.5q0 -111 -70.5 -207t-190.5 -153.5t-259 -57.5q-152 0 -248 66t-96 170zM231 -244q0 -129 70 -198.5t180 -69.5 q107 0 173.5 62.5t66.5 166.5q0 78 -44 120t-106.5 59.5t-171.5 33.5l-110 19q-57 -68 -58 -193zM287 604q0 -106 51 -188t131 -82q39 0 68.5 41t29.5 129q0 111 -57 186.5t-137 75.5q-86 0 -86 -162z" />
<glyph unicode="h" horiz-adv-x="1042" d="M2 1341l299 142l10 2q10 0 21.5 -9.5t11.5 -17.5v-811q145 168 311 168q111 0 175.5 -70.5t64.5 -185.5v-393q0 -82 23.5 -111.5t87.5 -29.5q8 0 8 -12.5t-8 -12.5q-53 0 -86 2l-119 2l-123 -2q-31 -2 -84 -2q-4 0 -4 12.5t4 12.5q63 0 87 29.5t24 111.5v295 q0 111 -41 164t-127 53q-49 0 -101.5 -20.5t-91.5 -55.5v-436q0 -82 23.5 -111.5t87.5 -29.5q8 0 8 -12.5t-8 -12.5q-53 0 -86 2l-119 2l-123 -2q-31 -2 -84 -2q-4 0 -4 12.5t4 12.5q63 0 87 29.5t24 111.5v1040q0 72 -13.5 102.5t-46.5 30.5q-29 0 -78 -22h-2q-6 0 -11 11 t-1 13z" />
<glyph unicode="i" horiz-adv-x="538" d="M37 652.5q-4 11.5 2 13.5l309 143l6 2q10 0 20.5 -10t10.5 -19v-45q-4 -82 -4 -200v-371q0 -82 23.5 -111.5t87.5 -29.5q6 0 6 -12.5t-6 -12.5q-53 0 -84 2l-123 2l-121 -2q-31 -2 -84 -2q-6 0 -6 12.5t6 12.5q63 0 85.5 29.5t22.5 111.5v366q0 70 -14 101t-47 31 q-27 0 -76 -23h-2q-8 0 -12 11.5zM152 1139q0 53 33.5 84.5t91.5 31.5q57 0 87.5 -30.5t30.5 -85.5q0 -59 -30.5 -92t-87.5 -33q-60 0 -92.5 32.5t-32.5 92.5z" />
<glyph unicode="j" horiz-adv-x="538" d="M7 -568.5q-5 11.5 1 13.5q98 43 139 137t41 273v677q0 70 -13 101t-46 31q-27 0 -76 -23h-2q-8 0 -13 11.5t1 13.5l309 143l6 2q10 0 20.5 -10t10.5 -19v-45q-4 -82 -4 -200v-635q0 -139 -34 -228.5t-112.5 -149t-218.5 -102.5q-4 -2 -9 9.5zM148 1139q0 53 33.5 84.5 t91.5 31.5q57 0 87.5 -30.5t30.5 -85.5q0 -59 -30.5 -92t-87.5 -33q-60 0 -92.5 32.5t-32.5 92.5z" />
<glyph unicode="k" horiz-adv-x="1005" d="M2 1341l299 142l10 2q10 0 21.5 -9.5t11.5 -17.5v-1038l191 184q53 49 53 101q0 27 -20.5 44t-57.5 17q-4 0 -4 12.5t4 12.5q59 0 92 -3l162 -2l149 2q29 2 80 3q6 0 6 -12.5t-6 -12.5q-88 0 -201.5 -44t-203.5 -128l-74 -68l281 -360q59 -74 113.5 -107.5t109.5 -33.5 q6 0 6 -12.5t-6 -12.5q-53 0 -84 2l-123 2l-158 -2q-35 -2 -94 -2q-6 0 -6 12.5t6 12.5q74 0 74 43q0 23 -17 41l-233 299l-39 -35v-207q0 -82 23.5 -111.5t87.5 -29.5q8 0 8 -12.5t-8 -12.5q-53 0 -86 2l-119 2l-123 -2q-31 -2 -84 -2q-4 0 -4 12.5t4 12.5q63 0 87 29.5 t24 111.5v1040q0 72 -13.5 102.5t-46.5 30.5q-29 0 -78 -22h-2q-6 0 -11 11t-1 13z" />
<glyph unicode="l" horiz-adv-x="548" d="M33 1341l301 142l8 2q10 0 22.5 -9.5t12.5 -17.5v-1292q0 -82 22.5 -111.5t85.5 -29.5q8 0 8.5 -12.5t-8.5 -12.5q-51 0 -82 2l-124 2l-123 -2q-31 -2 -84 -2q-4 0 -4 12.5t4 12.5q63 0 86.5 29.5t23.5 111.5l2 1040q0 72 -13 102.5t-46 30.5q-27 0 -78 -22h-2 q-6 0 -11 11t-1 13z" />
<glyph unicode="m" horiz-adv-x="1591" d="M13.5 655.5q-3.5 10.5 0.5 12.5l285 139q12 4 14 4q23 0 43.5 -44t24.5 -118q139 166 299 166q96 0 153.5 -47t69.5 -135q141 182 314 182q111 0 169 -63.5t58 -192.5v-393q0 -82 23.5 -111.5t86.5 -29.5q9 0 9 -12.5t-9 -12.5q-53 0 -84 2l-122 2l-119 -2q-33 -2 -86 -2 q-6 0 -6 12.5t6 12.5q63 0 86.5 29.5t23.5 111.5v295q0 111 -37.5 164t-115.5 53q-53 0 -104.5 -22.5t-88.5 -61.5v-12v-416q0 -82 23.5 -111.5t87.5 -29.5q8 0 8 -12.5t-8 -12.5q-53 0 -84 2l-123 2l-119 -2q-33 -2 -86 -2q-6 0 -6 12.5t6 12.5q63 0 87 29.5t24 111.5v295 q0 111 -38 164t-116 53q-49 0 -97 -19.5t-85 -54.5v-438q0 -82 23.5 -111.5t87.5 -29.5q6 0 6 -12.5t-6 -12.5q-53 0 -84 2l-123 2l-121 -2q-31 -2 -84 -2q-6 0 -6 12.5t6 12.5q63 0 85.5 29.5t22.5 111.5v385q0 63 -15 93t-48 30q-35 0 -98 -29h-4q-6 0 -9.5 10.5z" />
<glyph unicode="n" horiz-adv-x="1077" d="M13.5 655.5q-3.5 10.5 0.5 12.5l285 139q12 4 14 4q23 0 43.5 -44t24.5 -120q141 168 311 168q111 0 175.5 -70.5t64.5 -185.5v-393q0 -82 23.5 -111.5t86.5 -29.5q7 0 7 -12.5t-7 -12.5q-53 0 -84 2l-122 2l-119 -2q-33 -2 -86 -2q-6 0 -6 12.5t6 12.5q63 0 85.5 29.5 t22.5 111.5v295q0 111 -40 164t-126 53q-49 0 -101 -20.5t-91 -55.5v-436q0 -82 23.5 -111.5t87.5 -29.5q6 0 6 -12.5t-6 -12.5q-53 0 -84 2l-123 2l-121 -2q-31 -2 -84 -2q-6 0 -6 12.5t6 12.5q63 0 85.5 29.5t22.5 111.5v385q0 63 -15 93t-48 30q-35 0 -98 -29h-4 q-6 0 -9.5 10.5z" />
<glyph unicode="o" horiz-adv-x="1001" d="M66 406q0 133 67.5 226t172 139t214.5 46q127 0 221.5 -59.5t144.5 -156.5t50 -208q0 -123 -61.5 -218t-165 -148.5t-224.5 -53.5q-127 0 -222 58.5t-146 158t-51 216.5zM287 481q0 -137 34.5 -242.5t94 -164t131.5 -58.5q80 0 122 79t42 227q0 143 -37 245.5 t-96.5 154.5t-126.5 52q-164 0 -164 -293z" />
<glyph unicode="p" horiz-adv-x="1050" d="M-8 668l291 141q4 2 10 2q20 0 37.5 -35t23.5 -94q150 135 308 135q86 0 160.5 -45t119.5 -131t45 -201q0 -164 -67.5 -269t-171 -151.5t-213.5 -46.5q-101 0 -177 23v-393q0 -61 13.5 -90t51.5 -40.5t118 -11.5q6 0 6 -12t-6 -12q-76 0 -119 2l-162 2l-121 -2 q-31 -2 -86 -2q-6 0 -6 12t6 12q49 0 73 11.5t33 40t9 90.5v948q0 66 -14.5 94.5t-51.5 28.5q-33 0 -94 -29h-4q-6 0 -11 10.5t-1 12.5zM358 127q45 -51 94.5 -76.5t120.5 -25.5q207 0 207 352q0 156 -72.5 240.5t-181.5 84.5h-3q-90 0 -165 -65v-16v-494z" />
<glyph unicode="q" horiz-adv-x="1028" d="M66 354q0 147 65.5 252t171 158t221.5 53q172 0 293 -82l166 60l4 2q6 0 8 -10.5t-4 -12.5q-51 -27 -75.5 -67.5t-24.5 -102.5v-1001q0 -61 9 -90t32.5 -40.5t73.5 -11.5q6 0 6 -12t-6 -12q-53 0 -86 2l-123 2l-146 -2q-39 -2 -110 -2q-4 0 -4 12t4 12q70 0 102.5 11.5 t44.5 40t12 90.5v512q-68 -66 -137 -104t-157 -38q-92 0 -170 43t-124 129t-46 209zM276 434q0 -178 59.5 -265t164.5 -87q100 0 200 72v385q0 80 -34.5 133t-86 77.5t-98.5 24.5q-102 0 -153.5 -87t-51.5 -253z" />
<glyph unicode="r" horiz-adv-x="776" d="M13.5 655.5q-3.5 10.5 0.5 12.5l285 139q12 4 14 4q23 0 42.5 -42t23.5 -114q84 86 138 121t95 35q47 0 91.5 -34t44.5 -81q0 -43 -27 -70.5t-70 -27.5q-31 0 -50 12.5t-40 36.5q-18 20 -31.5 29.5t-31.5 9.5q-20 0 -44 -15.5t-73 -64.5v-440q0 -82 39 -111.5t143 -29.5 q8 0 8 -12.5t-8 -12.5q-72 0 -112 2l-166 2l-121 -2q-31 -2 -84 -2q-6 0 -6 12.5t6 12.5q63 0 85.5 29.5t22.5 111.5v385q0 63 -15 93t-48 30q-35 0 -98 -29h-4q-6 0 -9.5 10.5z" />
<glyph unicode="s" horiz-adv-x="690" d="M86 260q0 6 11.5 7t13.5 -3q33 -102 108.5 -174t153.5 -72q43 0 68.5 27t25.5 78q0 76 -43 120t-127 91q-72 39 -108.5 63.5t-65.5 69.5t-29 111q0 121 86 177t211 56q47 0 85 -6t85 -25q18 -6 19 -22q0 -51 -2 -80l-3 -103q0 -6 -12 -6t-12 6q0 39 -33 85.5t-85 79 t-107 32.5q-84 0 -84 -80q0 -59 42 -102t122 -90q78 -45 115.5 -71t68.5 -72t31 -111q0 -70 -35 -131.5t-104.5 -99.5t-166.5 -38q-113 0 -213 56q-12 12 -12 24z" />
<glyph unicode="t" horiz-adv-x="688" d="M47 750q0 8 2 13t6 5q104 4 169 45t100 125q4 8 17 8t13 -8v-164q119 2 267 19q4 0 9 -15.5t5 -34.5q0 -20 -7 -39.5t-16 -17.5q-133 29 -258 31v-486q0 -78 40 -114.5t106 -36.5q82 0 159 61l5 2q8 0 13 -8t-1 -12q-76 -76 -147.5 -112t-151.5 -36q-90 0 -153.5 43 t-63.5 146v454q0 63 -22.5 88t-82.5 25q-2 0 -5 6t-3 13z" />
<glyph unicode="u" horiz-adv-x="1034" d="M22.5 662.5q-4.5 11.5 2.5 13.5l274 131l10 2q10 0 21.5 -9t11.5 -18v-452q0 -221 170 -221q45 0 91 19t83 54v350q0 133 -63 134q-23 0 -54 -15h-2q-6 0 -10 11.5t2 13.5l275 131q4 2 10 2q10 0 21.5 -9t11.5 -18v-544q0 -70 13 -98.5t44 -28.5q29 0 84 22h4q6 0 11 -10 t-1 -12l-282 -138q-4 -2 -11 -2q-20 0 -35.5 44t-17.5 120q-135 -160 -293 -160q-113 0 -177 71t-64 185v301q0 133 -64 134q-23 0 -51 -15h-2q-8 0 -12.5 11.5z" />
<glyph unicode="v" horiz-adv-x="901" d="M-35 778.5q0 12.5 6 12.5q37 0 62 -3l137 -2l158 2q35 2 96 3q6 0 6 -12.5t-6 -12.5q-119 0 -119 -47q0 -12 10 -33l230 -430l135 328q16 43 16 73q0 51 -34.5 80t-96.5 29q-4 0 -4 12.5t4 12.5q55 0 84 -3l123 -2l82 2q25 2 76 3q4 0 4 -12.5t-4 -12.5q-59 0 -105.5 -45 t-87.5 -139l-252 -582q-2 -10 -22 -10q-16 0 -23 10l-313 621q-43 90 -76 117.5t-80 27.5q-6 0 -6 12.5z" />
<glyph unicode="w" horiz-adv-x="1402" d="M-35 778.5q0 12.5 6 12.5q37 0 62 -3l137 -2l145 2q31 2 84 3q6 0 6.5 -12.5t-6.5 -12.5q-104 0 -104 -45q0 -12 12 -35l238 -428l121 293l-35 70q-47 90 -71.5 117.5t-61.5 27.5q-4 0 -4 12.5t4 12.5q33 0 53 -3l123 -2l145 2q31 2 84 3q4 0 4 -12.5t-4 -12.5 q-41 0 -66.5 -13.5t-25.5 -35.5q0 -16 8 -31l230 -430l135 328q16 43 16 73q0 51 -36 80t-95 29q-6 0 -6 12.5t6 12.5q55 0 82 -3l123 -2l84 2q23 2 74 3q6 0 6 -12.5t-6 -12.5q-57 0 -103.5 -44t-87.5 -140l-252 -580q0 -8 -20 -8q-23 0 -25 8l-248 487l-211 -487 q0 -8 -20 -8q-18 0 -25 8l-313 619q-45 88 -77 116.5t-79 28.5q-6 0 -6 12.5z" />
<glyph unicode="x" horiz-adv-x="901" d="M2 12.5q0 12.5 6 12.5q63 0 135 51t136 139l94 129l-185 277q-96 145 -159 145q-4 0 -4 12.5t4 12.5q43 0 63 -3l64 -2l143 2q33 2 92 3q4 0 4 -12.5t-4 -12.5q-45 0 -45 -31q0 -20 21 -49l118 -180l58 84q49 72 49 115q0 61 -92 61q-4 0 -4 12.5t4 12.5q55 0 84 -3 l123 -2l84 2q23 2 73 3q6 0 6 -12.5t-6 -12.5q-63 0 -135 -51t-135 -140l-82 -108l197 -297q49 -74 97 -109.5t87 -35.5q6 0 6 -12.5t-6 -12.5l-74 2q-27 2 -76 2l-145 -2q-33 -2 -90 -2q-6 0 -6 12.5t6 12.5q45 0 45 28q0 23 -21 51l-133 201l-71 -104q-47 -68 -47 -115 q0 -61 90 -61q6 0 6 -12.5t-6 -12.5q-55 0 -82 2l-123 2l-84 -2q-23 -2 -74 -2q-6 0 -6 12.5z" />
<glyph unicode="y" horiz-adv-x="874" d="M-80 -475q0 47 28.5 71.5t69.5 24.5q23 0 38.5 -6t37.5 -21q38 -26 71 -26h3q47 0 85 36t79 118.5t98 236.5l-328 662q-45 88 -70.5 116.5t-62.5 28.5q-6 0 -6 12.5t6 12.5q57 0 88 -3l86 -2l142 2q33 2 88 3q6 0 6 -12.5t-6 -12.5q-53 0 -78 -9t-25 -30q0 -16 13 -41 l241 -493l123 356q18 53 19 96q0 57 -33 89t-94 32q-4 0 -4 12.5t4 12.5q55 0 84 -3l122 -2l82 2q25 2 76 3q4 0 4 -12.5t-4 -12.5q-66 0 -114 -56.5t-87 -162.5l-227 -604q-109 -287 -208 -402.5t-220 -115.5q-61 0 -94 25.5t-33 74.5z" />
<glyph unicode="z" horiz-adv-x="829" d="M66 549l86 321q0 2 8 2q16 0 14 -8q-4 -16 -4 -24q0 -29 24.5 -39t81.5 -10h472q8 0 14 -8.5t2 -16.5l-467 -715q-6 -14 10 -14q201 0 309.5 57.5t135.5 175.5q2 6 13 6t11 -6l-4 -247q0 -8 -6 -15.5t-14 -7.5h-670q-8 0 -13.5 8t-0.5 17l456 720q8 14 -10 15 q-168 0 -278.5 -54.5t-147.5 -162.5q0 -2 -8 -2q-16 0 -14 8z" />
<glyph unicode="{" horiz-adv-x="591" d="M59 623.5q0 13.5 7 13.5q72 12 95 132t23 314q0 176 27 259t93.5 113t207.5 30q8 0 8 -12.5t-8 -12.5q-53 0 -82 -56t-31 -161q-4 -250 -17 -352.5t-60.5 -160.5t-161.5 -105q115 -49 162 -109.5t60 -163t17 -350.5q2 -104 31 -160.5t82 -56.5q8 0 8 -12.5t-8 -12.5 q-141 0 -208.5 30t-93.5 114t-26 260q0 197 -23.5 315.5t-94.5 130.5q-7 0 -7 13.5z" />
<glyph unicode="|" horiz-adv-x="344" d="M127 -315v1812q0 14 49 14q47 0 47 -14v-1812q0 -8 -14 -12.5t-33 -4.5q-20 0 -34.5 4t-14.5 13z" />
<glyph unicode="}" horiz-adv-x="579" d="M59.5 -227.5q-0.5 12.5 8.5 12.5q53 0 81.5 56.5t30.5 160.5q4 248 17.5 350.5t60.5 162.5t162 110q-115 47 -162 105t-60.5 160.5t-17.5 352.5q-2 104 -30.5 160.5t-81.5 56.5q-8 0 -8.5 12.5t8.5 12.5q141 0 207.5 -30t93 -112.5t26.5 -259.5q0 -195 23.5 -314.5 t95.5 -131.5q6 0 6 -13.5t-6 -13.5q-72 -12 -95.5 -131t-23.5 -315q0 -176 -25.5 -260t-93 -114t-208.5 -30q-8 0 -8.5 12.5z" />
<glyph unicode="~" horiz-adv-x="907" d="M98 295q129 213 252 213q27 0 59.5 -10.5t65.5 -22.5q51 -20 90 -30.5t80 -10.5q55 0 87 20.5t65 57.5l4 2q4 0 8 -6t2 -10q-80 -127 -129 -170t-109 -43q-35 0 -64.5 8t-82.5 26q-94 39 -162 39q-49 0 -75.5 -14t-48 -35.5l-27.5 -27.5h-2q-4 0 -9.5 5t-3.5 9z" />
<glyph unicode="&#xa2;" horiz-adv-x="1085" d="M61 483q0 129 64.5 237.5t178.5 176.5t255 82v170q0 8 9.5 12t21.5 4t20 -4t8 -12v-166h13q76 0 165 -16.5t146 -42.5q14 -6 18.5 -13.5t4.5 -21.5l10 -211q0 -6 -10.5 -8t-14.5 6q-76 131 -154.5 194.5t-177.5 67.5v-918q10 -2 33 -2q104 0 177 63.5t143 205.5q2 8 12 6 t10 -8l-16 -217q-2 -16 -6 -22.5t-23 -14.5q-158 -55 -327 -56h-3v-184q0 -14 -28 -14q-31 0 -31 14v186q-174 12 -285.5 92.5t-162 191t-50.5 222.5zM305 514q0 -170 63.5 -306t190.5 -177v903q-123 -18 -188.5 -131t-65.5 -289z" />
<glyph unicode="&#xa3;" horiz-adv-x="884" d="M20.5 11.5q-0.5 11.5 6.5 13.5q104 25 142 75t38 121q0 111 -35 219h-84q-6 0 -10 9.5t-4 21.5q0 10 4 19.5t10 9.5h64q-18 53 -26.5 90t-8.5 80q0 162 110.5 237.5t278.5 75.5q94 0 182 -27q31 -12 33 -38l14 -213q0 -8 -10 -9q-8 0 -14 9q-70 125 -120 181t-128 56 t-111 -56.5t-33 -142.5q0 -57 12.5 -108t39.5 -135h190q14 0 14 -29q0 -31 -14 -31h-174q18 -78 19 -135q0 -76 -25 -123t-68 -84h201q90 0 134 12.5t66.5 46t39.5 107.5q0 4 8 4q6 0 11 -2t5 -6q-18 -106 -18 -229q0 -16 -7.5 -23.5t-23.5 -7.5h-702q-6 0 -6.5 11.5z" />
<glyph unicode="&#xa5;" horiz-adv-x="1019" d="M6 946q0 12 6 12l76 -2l82 -4q61 0 192 4l130 2q4 0 4 -12t-4 -12q-100 0 -101 -51q0 -25 27 -64l190 -297l125 230q31 55 31 98q0 39 -25.5 61.5t-79.5 22.5q-6 0 -6 12t6 12l99 -2q82 -4 149 -4q25 0 62 4l49 2q6 0 6 -12t-6 -12q-125 0 -227 -184l-156 -281v-33h186 q8 0 12.5 -8t4.5 -18t-4.5 -18.5t-12.5 -8.5h-592q-6 0 -10 8t-4 19q0 10 4 18t10 8h193v2l-225 350q-49 78 -93.5 112t-91.5 34q-6 0 -6 12zM215 264q0 10 4 18.5t10 8.5h592q8 0 12.5 -8.5t4.5 -18.5t-4.5 -18t-12.5 -8h-186v-72q0 -63 10 -92t41 -39t100 -10 q4 0 4.5 -12.5t-4.5 -12.5q-68 0 -106 2l-154 2l-145 -2q-41 -2 -113 -2q-6 0 -6 12.5t6 12.5q68 0 99.5 10t43 39.5t11.5 91.5v72h-193q-6 0 -10 8t-4 18z" />
<glyph unicode="&#xa8;" horiz-adv-x="659" d="M41 1063q0 49 30.5 77.5t82.5 28.5q51 0 78.5 -28.5t27.5 -77.5q0 -53 -27.5 -83t-78.5 -30q-54 0 -83.5 30t-29.5 83zM399 1063q0 49 30 76.5t81 27.5t78.5 -27.5t27.5 -76.5q0 -53 -27.5 -83t-78.5 -30q-53 0 -82 30t-29 83z" />
<glyph unicode="&#xa9;" horiz-adv-x="1488" d="M131 383q0 186 100.5 333.5t265.5 230.5t347 83q160 0 282.5 -66.5t189 -177t66.5 -237.5q0 -121 -69.5 -228.5t-193.5 -174t-277 -66.5q-193 0 -285 94t-92 225q0 106 52 184.5t135 120t175 41.5q86 0 153 -31.5t67 -92.5q0 -86 -89 -86q-31 0 -51 19t-37 54 q-25 45 -47 66.5t-63 21.5q-63 0 -86 -53t-23 -172q0 -145 74 -239.5t225 -94.5q76 0 144.5 43t109.5 122t41 181q0 137 -61.5 252t-170 181.5t-241.5 66.5q-152 0 -263.5 -73.5t-168.5 -198.5t-57 -275q0 -176 70.5 -307t199.5 -202.5t303 -71.5q104 0 193.5 22.5 t183.5 81.5h2q6 0 11 -7t-1 -9q-115 -90 -228.5 -125t-236.5 -35q-176 0 -324.5 71.5t-236.5 208t-88 320.5z" />
<glyph unicode="&#xab;" horiz-adv-x="972" d="M100 412q0 14 9 22l385 305q0 2 4 2t8 -5t2 -7l-189 -317l189 -318q2 -4 -5 -11t-9 -1l-385 305q-8 8 -9 25zM449 412q0 10 8 22l387 305q0 2 4 2t8 -5t2 -7l-190 -317l190 -318q2 -4 -5 -11t-9 -1l-387 305q-8 12 -8 25z" />
<glyph unicode="&#xad;" d="M55 377q0 49 6 49l535 96q4 2 7 -15.5t3 -37.5t-3 -37.5t-7 -19.5l-530 -97q-5 -2 -8 18.5t-3 43.5z" />
<glyph unicode="&#xae;" horiz-adv-x="1515" d="M131 858q0 188 94 330.5t251 219.5t339 77q176 0 311.5 -73t209 -201t73.5 -287q0 -176 -88 -322.5t-240.5 -232.5t-335.5 -86q-158 0 -299 71.5t-228 202.5t-87 301zM258 934q0 -172 75 -308.5t204 -213t286 -76.5q221 0 335 143.5t114 376.5q0 180 -67.5 311 t-189.5 200t-280 69q-162 0 -269.5 -69t-157.5 -181.5t-50 -251.5zM477 572.5q0 11.5 2 11.5q31 0 43.5 6t16.5 24.5t4 61.5v440q0 57 -11.5 73.5t-52.5 16.5q-2 0 -2 12.5t2 12.5l146 -2q25 0 90 4q57 4 78 4q104 0 155 -34t51 -107q0 -59 -30.5 -103.5t-83.5 -68.5 q74 -154 131 -228.5t133 -117.5q4 -3 4 -10t-4 -7h-201q-18 0 -60 78t-124 250q-49 -4 -76 -4v-209q0 -61 15.5 -76.5t70.5 -15.5q4 0 4 -11.5t-4 -11.5l-149 2l-146 -2q-2 0 -2 11.5zM688 915q94 -6 128 24t34 116q0 156 -90 155q-31 0 -45.5 -5t-20.5 -25.5t-6 -67.5v-197 z" />
<glyph unicode="&#xaf;" horiz-adv-x="706" d="M76 1010q0 14 6 25.5t14 11.5h514q10 0 16.5 -11.5t6.5 -25.5q0 -16 -6 -27.5t-17 -11.5h-514q-8 0 -14 11t-6 28z" />
<glyph unicode="&#xb4;" horiz-adv-x="434" d="M119 975l67 491q4 8 67.5 19.5t106.5 11.5q29 0 27 -8l-246 -518q0 -4 -8 -4q-6 0 -11 3t-3 5z" />
<glyph unicode="&#xb8;" horiz-adv-x="475" d="M29 -465q0 31 24.5 55.5t57.5 24.5q39 0 55 -17.5t27 -50.5q10 -31 23 -46t48 -15q45 0 45 49q0 53 -38 96t-132 97q-18 6 -18 24q0 14 8 33q31 74 66 170q0 2 16 43l35 -2q-8 -31 -8 -62q0 -39 19 -68.5t62 -53.5q53 -33 83 -69t30 -91q0 -86 -62.5 -150.5t-187.5 -64.5 q-154 0 -153 98z" />
<glyph unicode="&#xbb;" horiz-adv-x="972" d="M115 94l190 316l-190 319q-2 4 5 10t9 0l385 -305q10 -10 10 -22q0 -14 -10 -25l-385 -305q0 -2 -4 -2t-8 5t-2 9zM465 94l188 316l-188 319q-2 4 5 10t9 0l385 -305q10 -10 10 -22q0 -14 -10 -25l-385 -305q0 -2 -4 -2t-8 5t-2 9z" />
<glyph unicode="&#xc1;" horiz-adv-x="1466" d="M-16 12.5q0 12.5 8 12.5q57 0 96 23.5t78 84t92 178.5l444 977q4 6 19 6q16 0 18 -6l512 -1007q72 -145 119 -200.5t98 -55.5q11 0 11 -12.5t-11 -12.5q-41 0 -127 4q-90 4 -129 4q-51 0 -125 -4q-70 -4 -110 -4q-8 0 -8 12.5t8 12.5q53 0 76.5 11t23.5 40q0 35 -41 117 l-213 419h-364l-146 -321q-27 -59 -26 -111q0 -74 52 -114.5t140 -40.5q10 0 10 -12.5t-10 -12.5q-37 0 -106 4q-78 4 -135 4q-55 0 -134 -4q-70 -4 -112 -4q-8 0 -8 12.5zM485 670h310l-164 323zM512 1397.5q-2 9.5 4 13.5q59 43 166 135q61 53 92 78q10 10 72.5 -7.5 t111 -41t23.5 -27.5q-127 -31 -232.5 -69t-222.5 -89l-4 -2q-8 0 -10 9.5z" />
<glyph unicode="&#xc9;" horiz-adv-x="1130" d="M78 12.5q0 12.5 6 12.5q66 0 95.5 10t39.5 39.5t10 91.5v948q0 61 -10 90t-41 40t-94 11q-6 0 -6 12.5t6 12.5h868q20 0 21 -18l4 -273q0 -4 -11.5 -6t-13.5 4q-33 119 -110.5 176.5t-204.5 57.5h-62q-61 0 -89.5 -27t-28.5 -82v-418h170q119 0 182 41t63 115q0 6 11.5 6 t11.5 -6l-2 -184l2 -99q4 -70 4 -110q0 -4 -12.5 -4t-12.5 4q0 84 -64.5 132t-184.5 48h-168v-463q0 -59 22.5 -88t71.5 -29h67q160 0 256.5 65.5t141.5 203.5q0 4 8 4q6 0 11 -3t5 -5q-20 -160 -20 -291q0 -16 -6 -23.5t-25 -7.5h-905q-6 0 -6 12.5zM397 1397.5 q-2 9.5 4 13.5q59 43 166 135q61 53 92 78q10 10 72.5 -7.5t111 -41t23.5 -27.5q-127 -31 -232.5 -69t-222.5 -89l-4 -2q-8 0 -10 9.5z" />
<glyph unicode="&#xcd;" horiz-adv-x="700" d="M82 12.5q0 12.5 4 12.5q66 0 96.5 10t42 39.5t11.5 91.5v948q0 61 -11.5 90t-42 40t-96.5 11q-4 0 -4 12.5t4 12.5l111 -2q94 -4 151 -4q63 0 158 4l104 2q6 0 6 -12.5t-6 -12.5q-63 0 -94 -12t-41 -42t-10 -91v-944q0 -64 10 -92.5t40 -38.5t95 -10q6 0 6 -12.5 t-6 -12.5q-68 0 -106 2l-156 2l-151 -2q-41 -2 -111 -2q-4 0 -4 12.5zM137 1397.5q-2 9.5 4 13.5q59 43 166 135q61 53 92 78q10 10 72.5 -7.5t111 -41t23.5 -27.5q-127 -31 -232.5 -69t-222.5 -89l-4 -2q-8 0 -10 9.5z" />
<glyph unicode="&#xd3;" horiz-adv-x="1568" d="M100 639q0 211 106.5 361.5t273.5 226.5t341 76q195 0 342.5 -91.5t226 -241t78.5 -317.5q0 -186 -98 -341.5t-263 -246t-357 -90.5q-191 0 -339.5 89.5t-229.5 242t-81 332.5zM352 715q0 -199 60.5 -355.5t166 -244.5t238.5 -88q115 0 206 66.5t142.5 194.5t51.5 306 q0 188 -57.5 336.5t-166 232.5t-254.5 84q-186 0 -286.5 -140t-100.5 -392zM582 1397.5q-2 9.5 4 13.5q59 43 166 135q61 53 92 78q10 10 72.5 -7.5t111 -41t23.5 -27.5q-127 -31 -232.5 -69t-222.5 -89l-4 -2q-8 0 -10 9.5z" />
<glyph unicode="&#xda;" horiz-adv-x="1439" d="M59.5 1267.5q-0.5 12.5 6.5 12.5l108 -2q94 -4 150 -4q61 0 155 4l105 2q6 0 6 -12.5t-6 -12.5q-63 0 -93 -12t-41.5 -42t-11.5 -91v-586q0 -244 96.5 -360.5t272.5 -116.5q170 0 266 103.5t96 295.5v572q0 110 -50 173.5t-140 63.5q-4 0 -4 12.5t4 12.5l98 -2 q78 -4 125 -4q39 0 113 4l94 2q4 0 4 -12.5t-4 -12.5q-80 0 -125 -63.5t-45 -173.5v-569q0 -143 -63.5 -252t-179 -167.5t-267.5 -58.5t-268.5 57.5t-183 167t-66.5 257.5v661q0 61 -11.5 90t-41 40t-92.5 11q-6 0 -6.5 12.5zM551 1397.5q-2 9.5 4 13.5q59 43 166 135 q61 53 92 78q10 10 72.5 -7.5t111 -41t23.5 -27.5q-127 -31 -232.5 -69t-222.5 -89l-4 -2q-8 0 -10 9.5z" />
<glyph unicode="&#xdd;" horiz-adv-x="1267" d="M4 1267.5q0 12.5 6 12.5l64 -2q45 -4 63 -4q72 0 207 4l135 2q4 0 4 -12.5t-4 -12.5q-35 0 -54 -16t-19 -43q0 -33 28 -78l281 -442l188 321q55 92 55 158q0 49 -29.5 74.5t-84.5 25.5q-6 0 -6 12.5t6 12.5l108 -2q94 -4 168 -4q35 0 84 4l76 2q4 0 4 -12.5t-4 -12.5 q-63 0 -155.5 -78.5t-163.5 -197.5l-213 -356v-457q0 -63 10 -92t39.5 -39t95.5 -10q6 0 6 -12.5t-6 -12.5q-68 0 -107 2l-153 2l-152 -2q-41 -2 -110 -2q-4 0 -4 12.5t4 12.5q66 0 96.5 10t41.5 39.5t11 91.5v414l-299 464q-76 119 -126 165t-85 46q-6 0 -6 12.5z M451 1397.5q-2 9.5 4 13.5q59 43 166 135q61 53 92 78q10 10 72.5 -7.5t111 -41t23.5 -27.5q-127 -31 -232.5 -69t-222.5 -89l-4 -2q-8 0 -10 9.5z" />
<glyph unicode="&#xe1;" horiz-adv-x="862" d="M82 117q0 47 23.5 75.5t67.5 48t140 52.5l209 67v162q0 123 -24.5 181.5t-79.5 58.5q-49 0 -78 -37t-35 -121q-12 -115 -121 -115q-96 0 -96 84q0 55 69.5 110.5t168 90.5t172.5 35q96 0 156.5 -57.5t60.5 -167.5v-363q0 -59 21.5 -92t60.5 -33q29 0 59 15h2q8 0 11 -9.5 t-5 -13.5l-211 -100q-8 -4 -20 -4q-31 0 -60.5 30.5t-42.5 83.5l-94 -51q-53 -27 -110.5 -44t-102.5 -17q-66 0 -103.5 33.5t-37.5 97.5zM307 180q0 -43 24.5 -67.5t61.5 -24.5q45 0 105 29l26 14q-2 14 -2 43v152l-112 -41q-55 -20 -79 -45t-24 -60zM412 975l67 491 q4 8 67.5 19.5t106.5 11.5q29 0 27 -8l-246 -518q0 -4 -8 -4q-6 0 -11 3t-3 5z" />
<glyph unicode="&#xe9;" horiz-adv-x="856" d="M66 371q0 119 61 220t167.5 159.5t237.5 58.5q127 0 195 -54.5t68 -148.5q0 -59 -23 -59h-125l-368 -4q-6 -39 -7 -86q0 -176 83 -278.5t229 -102.5q51 0 106 14t101 43l4 2q4 0 9 -8t1 -12q-76 -74 -154 -107t-170 -33q-129 0 -223 54.5t-143 145.5t-49 196zM285 584 l290 6q-6 178 -118 178q-62 0 -107 -49t-65 -135zM455 975l67 491q4 8 67.5 19.5t106.5 11.5q29 0 27 -8l-246 -518q0 -4 -8 -4q-6 0 -11 3t-3 5z" />
<glyph unicode="&#xed;" horiz-adv-x="538" d="M37 652.5q-4 11.5 2 13.5l309 143l6 2q10 0 20.5 -10t10.5 -19v-45q-4 -82 -4 -200v-371q0 -82 23.5 -111.5t87.5 -29.5q6 0 6 -12.5t-6 -12.5q-53 0 -84 2l-123 2l-121 -2q-31 -2 -84 -2q-6 0 -6 12.5t6 12.5q63 0 85.5 29.5t22.5 111.5v366q0 70 -14 101t-47 31 q-27 0 -76 -23h-2q-8 0 -12 11.5zM250 975l67 491q4 8 67.5 19.5t106.5 11.5q29 0 27 -8l-246 -518q0 -4 -8 -4q-6 0 -11 3t-3 5z" />
<glyph unicode="&#xf3;" horiz-adv-x="1001" d="M66 406q0 133 67.5 226t172 139t214.5 46q127 0 221.5 -59.5t144.5 -156.5t50 -208q0 -123 -61.5 -218t-165 -148.5t-224.5 -53.5q-127 0 -222 58.5t-146 158t-51 216.5zM287 481q0 -137 34.5 -242.5t94 -164t131.5 -58.5q80 0 122 79t42 227q0 143 -37 245.5 t-96.5 154.5t-126.5 52q-164 0 -164 -293zM477 975l67 491q4 8 67.5 19.5t106.5 11.5q29 0 27 -8l-246 -518q0 -4 -8 -4q-6 0 -11 3t-3 5z" />
<glyph unicode="&#xfa;" horiz-adv-x="1034" d="M22.5 662.5q-4.5 11.5 2.5 13.5l274 131l10 2q10 0 21.5 -9t11.5 -18v-452q0 -221 170 -221q45 0 91 19t83 54v350q0 133 -63 134q-23 0 -54 -15h-2q-6 0 -10 11.5t2 13.5l275 131q4 2 10 2q10 0 21.5 -9t11.5 -18v-544q0 -70 13 -98.5t44 -28.5q29 0 84 22h4q6 0 11 -10 t-1 -12l-282 -138q-4 -2 -11 -2q-20 0 -35.5 44t-17.5 120q-135 -160 -293 -160q-113 0 -177 71t-64 185v301q0 133 -64 134q-23 0 -51 -15h-2q-8 0 -12.5 11.5zM500 975l67 491q4 8 67.5 19.5t106.5 11.5q29 0 27 -8l-246 -518q0 -4 -8 -4q-6 0 -11 3t-3 5z" />
<glyph unicode="&#xfd;" horiz-adv-x="874" d="M-80 -475q0 47 28.5 71.5t69.5 24.5q23 0 38.5 -6t37.5 -21q39 -27 74 -26q47 0 85 36t79 118.5t98 236.5l-328 662q-45 88 -70.5 116.5t-62.5 28.5q-6 0 -6 12.5t6 12.5q57 0 88 -3l86 -2l142 2q33 2 88 3q6 0 6 -12.5t-6 -12.5q-53 0 -78 -9t-25 -30q0 -16 13 -41 l241 -493l123 356q18 53 19 96q0 57 -33 89t-94 32q-4 0 -4 12.5t4 12.5q55 0 84 -3l122 -2l82 2q25 2 76 3q4 0 4 -12.5t-4 -12.5q-66 0 -114 -56.5t-87 -162.5l-227 -604q-109 -287 -208 -402.5t-220 -115.5q-61 0 -94 25.5t-33 74.5zM428 975l67 491q4 8 67.5 19.5 t106.5 11.5q29 0 27 -8l-246 -518q0 -4 -8 -4q-6 0 -11 3t-3 5z" />
<glyph unicode="&#x10c;" horiz-adv-x="1370" d="M100 645q0 195 105.5 344.5t281 231.5t375.5 82q90 0 188.5 -15.5t153.5 -40.5q18 -6 23.5 -15t9.5 -32l25 -285q0 -6 -10.5 -8t-12.5 6q-70 162 -186.5 250t-270.5 88q-203 0 -313.5 -149.5t-110.5 -401.5q0 -188 60.5 -343.5t170 -247t249.5 -91.5q131 0 234.5 87.5 t184.5 265.5q2 8 13.5 6t11.5 -8l-31 -279q-4 -25 -9 -32t-23 -15q-182 -68 -375 -68q-250 0 -418 99.5t-247 252t-79 318.5zM541 1642v5q0 4 5 8t7 2l224 -78l221 82h2q6 0 9 -5t-1 -9l-209 -240q-8 -8 -22 -8q-16 0 -25 8z" />
<glyph unicode="&#x10d;" horiz-adv-x="870" d="M66 381q0 129 71.5 226.5t183 149.5t228.5 52q98 0 177 -41t79 -113q0 -39 -30 -66.5t-83 -27.5q-49 0 -77.5 25.5t-47.5 79.5q-18 57 -35.5 78.5t-62.5 21.5q-88 0 -140.5 -87t-52.5 -230q0 -170 76 -271.5t242 -101.5q55 0 95 12t102 41h2q6 0 11 -6t1 -10 q-76 -70 -151.5 -104t-174.5 -34q-135 0 -228 58.5t-139 152t-46 195.5zM344 1487q-2 6 8 8t14 -2l142 -223l139 223q4 4 13 2t7 -8l-137 -510q-4 -10 -22 -10t-25 10z" />
<glyph unicode="&#x10e;" horiz-adv-x="1443" d="M57 12.5q0 12.5 4 12.5q66 0 96.5 10t42 39.5t11.5 91.5v948q0 61 -11.5 90t-41 40t-92.5 11q-6 0 -6.5 12.5t6.5 12.5l108 -2q94 -4 150 -4q84 0 172 6q106 4 143 4q207 0 367.5 -82t248.5 -223t88 -317q0 -199 -91 -351.5t-245.5 -235.5t-338.5 -83q-66 0 -156 6 q-33 2 -81 4t-107 2l-152 -2q-41 -2 -111 -2q-4 0 -4 12.5zM426 1642v5q0 4 5 8t7 2l224 -78l221 82h2q6 0 9 -5t-1 -9l-209 -240q-8 -8 -22 -8q-16 0 -25 8zM438 188q0 -82 43 -115.5t166 -33.5q131 0 231.5 66.5t157 197.5t56.5 313q0 174 -53.5 316.5t-152 224.5 t-227.5 82q-127 0 -174 -24.5t-47 -104.5v-922z" />
<glyph unicode="&#x10f;" horiz-adv-x="1044" d="M66 373q0 156 72.5 255t180 144t216.5 45q76 0 159 -24v413q0 72 -13 102.5t-46 30.5q-27 0 -76 -22h-2q-8 0 -13 11t-1 13l301 142l8 2q10 0 22.5 -9.5t12.5 -17.5v-1220q0 -70 13 -98.5t44 -28.5q27 0 84 22h2q6 0 11.5 -10t0.5 -12l-282 -138l-10 -2q-18 0 -34 39 t-20 107q-152 -143 -309 -144q-90 0 -162.5 47.5t-115.5 138.5t-43 214zM276 438q0 -172 61.5 -269t162.5 -97q102 0 194 86v10v498q-37 51 -83 74.5t-107 23.5q-111 0 -169.5 -77t-58.5 -249zM988 1479q0 10 43 -3.5t81.5 -35t34.5 -37.5l-120 -483q-2 -4 -12.5 -3t-10.5 5 z" />
<glyph unicode="&#x11a;" horiz-adv-x="1130" d="M78 12.5q0 12.5 6 12.5q66 0 95.5 10t39.5 39.5t10 91.5v948q0 61 -10 90t-41 40t-94 11q-6 0 -6 12.5t6 12.5h868q20 0 21 -18l4 -273q0 -4 -11.5 -6t-13.5 4q-33 119 -110.5 176.5t-204.5 57.5h-62q-61 0 -89.5 -27t-28.5 -82v-418h170q119 0 182 41t63 115q0 6 11.5 6 t11.5 -6l-2 -184l2 -99q4 -70 4 -110q0 -4 -12.5 -4t-12.5 4q0 84 -64.5 132t-184.5 48h-168v-463q0 -59 22.5 -88t71.5 -29h67q160 0 256.5 65.5t141.5 203.5q0 4 8 4q6 0 11 -3t5 -5q-20 -160 -20 -291q0 -16 -6 -23.5t-25 -7.5h-905q-6 0 -6 12.5zM375 1642v5q0 4 5 8 t7 2l224 -78l221 82h2q6 0 9 -5t-1 -9l-209 -240q-8 -8 -22 -8q-16 0 -25 8z" />
<glyph unicode="&#x11b;" horiz-adv-x="856" d="M66 371q0 119 61 220t167.5 159.5t237.5 58.5q127 0 195 -54.5t68 -148.5q0 -59 -23 -59h-125l-368 -4q-6 -39 -7 -86q0 -176 83 -278.5t229 -102.5q51 0 106 14t101 43l4 2q4 0 9 -8t1 -12q-76 -74 -154 -107t-170 -33q-129 0 -223 54.5t-143 145.5t-49 196zM285 584 l290 6q-6 178 -118 178q-62 0 -107 -49t-65 -135zM318 1487q-2 6 8 8t14 -2l142 -223l139 223q4 4 13 2t7 -8l-137 -510q-4 -10 -22 -10t-25 10z" />
<glyph unicode="&#x147;" horiz-adv-x="1505" d="M41 1267.5q0 12.5 4 12.5l86 -2q27 -2 78 -2l156 2q29 2 69 2q16 0 24.5 -8t28.5 -35q35 -47 50 -63l708 -818v662q0 111 -45 174t-125 63q-4 0 -4 12.5t4 12.5l88 -2q66 -4 111 -4q41 0 115 4l92 2q4 0 4 -12.5t-4 -12.5q-82 0 -129 -64.5t-47 -172.5v-1049 q0 -6 -9.5 -8t-13.5 2l-960 1094v-797q0 -109 45 -172t125 -63q4 0 4 -12.5t-4 -12.5q-57 0 -89 2l-110 2l-127 -2q-35 -2 -100 -2q-6 0 -6.5 12.5t6.5 12.5q90 0 142 63.5t52 171.5v866q-68 74 -116 101.5t-99 27.5q-4 0 -4 12.5zM547 1642v5q0 4 5 8t7 2l224 -78l221 82h2 q6 0 9 -5t-1 -9l-209 -240q-8 -8 -22 -8q-16 0 -25 8z" />
<glyph unicode="&#x148;" horiz-adv-x="1077" d="M13.5 655.5q-3.5 10.5 0.5 12.5l285 139q12 4 14 4q23 0 43.5 -44t24.5 -120q141 168 311 168q111 0 175.5 -70.5t64.5 -185.5v-393q0 -82 23.5 -111.5t86.5 -29.5q7 0 7 -12.5t-7 -12.5q-53 0 -84 2l-122 2l-119 -2q-33 -2 -86 -2q-6 0 -6 12.5t6 12.5q63 0 85.5 29.5 t22.5 111.5v295q0 111 -40 164t-126 53q-49 0 -101 -20.5t-91 -55.5v-436q0 -82 23.5 -111.5t87.5 -29.5q6 0 6 -12.5t-6 -12.5q-53 0 -84 2l-123 2l-121 -2q-31 -2 -84 -2q-6 0 -6 12.5t6 12.5q63 0 85.5 29.5t22.5 111.5v385q0 63 -15 93t-48 30q-35 0 -98 -29h-4 q-6 0 -9.5 10.5zM404 1487q-2 6 8 8t14 -2l142 -223l139 223q4 4 13 2t7 -8l-137 -510q-4 -10 -22 -10t-25 10z" />
<glyph unicode="&#x158;" horiz-adv-x="1429" d="M78 12.5q0 12.5 6 12.5q66 0 95.5 10t40.5 39.5t11 91.5v948q0 61 -10 90t-40.5 40t-94.5 11q-4 0 -4 12.5t4 12.5l109 -2q94 -4 149 -4q59 0 131 6q23 2 58.5 4t84.5 2q188 0 292 -68.5t104 -191.5q0 -94 -57.5 -180t-149.5 -139q164 -258 275.5 -403.5t198.5 -212 t169 -66.5q4 0 4 -12.5t-4 -12.5h-365q-45 0 -167.5 169t-296.5 472q-16 -2 -48 -2q-80 0 -112 2v-475q0 -63 10 -92t40 -39t95 -10q4 0 4 -12.5t-4 -12.5q-68 0 -106 2l-156 2l-149 -2q-41 -2 -111 -2q-6 0 -6 12.5zM291 1642v5q0 4 5 8t7 2l224 -78l221 82h2q6 0 9 -5 t-1 -9l-209 -240q-8 -8 -22 -8q-16 0 -25 8zM461 700q49 -8 119 -8q74 0 116.5 22.5t62 78t19.5 155.5q0 168 -49 231.5t-141 63.5q-70 0 -98.5 -30.5t-28.5 -102.5v-410z" />
<glyph unicode="&#x159;" horiz-adv-x="776" d="M13.5 655.5q-3.5 10.5 0.5 12.5l285 139q12 4 14 4q23 0 42.5 -42t23.5 -114q84 86 138 121t95 35q47 0 91.5 -34t44.5 -81q0 -43 -27 -70.5t-70 -27.5q-31 0 -50 12.5t-40 36.5q-18 20 -31.5 29.5t-31.5 9.5q-20 0 -44 -15.5t-73 -64.5v-440q0 -82 39 -111.5t143 -29.5 q8 0 8 -12.5t-8 -12.5q-72 0 -112 2l-166 2l-121 -2q-31 -2 -84 -2q-6 0 -6 12.5t6 12.5q63 0 85.5 29.5t22.5 111.5v385q0 63 -15 93t-48 30q-35 0 -98 -29h-4q-6 0 -9.5 10.5zM250 1487q-2 6 8 8t14 -2l142 -223l139 223q4 4 13 2t7 -8l-137 -510q-4 -10 -22 -10t-25 10z " />
<glyph unicode="&#x160;" horiz-adv-x="1054" d="M152 422v2q0 8 10 9t12 -7q61 -125 107.5 -203t117 -137t160.5 -59q82 0 135.5 44t53.5 150q0 90 -40 157.5t-97.5 115t-157.5 112.5q-98 63 -152.5 108.5t-93.5 109t-39 149.5q0 109 62.5 183.5t160.5 110.5t207 36q72 0 145.5 -13.5t118.5 -32.5q18 -8 24.5 -17 t6.5 -23v-302q0 -6 -10.5 -9t-12.5 3l-16 39q-51 129 -119.5 219t-191.5 90q-82 0 -134.5 -47t-52.5 -137q0 -74 38 -131t93.5 -100t149.5 -105q102 -66 163.5 -115t104.5 -119.5t43 -162.5q0 -106 -57 -189t-158.5 -129.5t-226.5 -46.5q-92 0 -192.5 26t-135.5 56 q-10 8 -15 15.5t-5 23.5zM319 1642v5q0 4 5 8t7 2l224 -78l221 82h2q6 0 9 -5t-1 -9l-209 -240q-8 -8 -22 -8q-16 0 -25 8z" />
<glyph unicode="&#x161;" horiz-adv-x="690" d="M86 260q0 6 11.5 7t13.5 -3q33 -102 108.5 -174t153.5 -72q43 0 68.5 27t25.5 78q0 76 -43 120t-127 91q-72 39 -108.5 63.5t-65.5 69.5t-29 111q0 121 86 177t211 56q47 0 85 -6t85 -25q18 -6 19 -22q0 -51 -2 -80l-3 -103q0 -6 -12 -6t-12 6q0 39 -33 85.5t-85 79 t-107 32.5q-84 0 -84 -80q0 -59 42 -102t122 -90q78 -45 115.5 -71t68.5 -72t31 -111q0 -70 -35 -131.5t-104.5 -99.5t-166.5 -38q-113 0 -213 56q-12 12 -12 24zM191 1487q-2 6 8 8t14 -2l142 -223l139 223q4 4 13 2t7 -8l-137 -510q-4 -10 -22 -10t-25 10z" />
<glyph unicode="&#x164;" horiz-adv-x="1316" d="M82 918q8 82 18.5 212t10.5 195q0 10 11 10t11 -10q0 -45 117 -45q176 -6 412 -6q121 0 256 4l139 2q78 0 113.5 10t46.5 41q2 8 13 8t11 -8q-6 -61 -13 -196.5t-7 -216.5q0 -6 -10.5 -6.5t-12.5 6.5q-31 158 -115 236.5t-206 78.5q-59 0 -79 -25.5t-20 -97.5v-944 q0 -63 12.5 -92t47 -39t110.5 -10q6 0 6 -12.5t-6 -12.5q-74 0 -117 2l-169 2l-166 -2q-43 -2 -119 -2q-6 0 -6 12.5t6 12.5q74 0 109.5 10t49 39.5t13.5 91.5v948q0 70 -18.5 94.5t-75.5 24.5q-245 -1 -351 -318q-2 -6 -12 -5t-10 8zM424 1642v5q0 4 5 8t7 2l224 -78 l221 82h2q6 0 9 -5t-1 -9l-209 -240q-8 -8 -22 -8q-16 0 -25 8z" />
<glyph unicode="&#x165;" horiz-adv-x="688" d="M47 750q0 8 2 13t6 5q104 4 169 45t100 125q4 8 17 8t13 -8v-164q119 2 267 19q4 0 9 -15.5t5 -34.5q0 -20 -7 -39.5t-16 -17.5q-133 29 -258 31v-486q0 -78 40 -114.5t106 -36.5q82 0 159 61l5 2q8 0 13 -8t-1 -12q-76 -76 -147.5 -112t-151.5 -36q-90 0 -153.5 43 t-63.5 146v454q0 63 -22.5 88t-82.5 25q-2 0 -5 6t-3 13zM430 1426q0 10 43 -3.5t81.5 -35t34.5 -37.5l-120 -483q-2 -4 -12.5 -3t-10.5 5z" />
<glyph unicode="&#x16e;" horiz-adv-x="1439" d="M59.5 1267.5q-0.5 12.5 6.5 12.5l108 -2q94 -4 150 -4q61 0 155 4l105 2q6 0 6 -12.5t-6 -12.5q-63 0 -93 -12t-41.5 -42t-11.5 -91v-586q0 -244 96.5 -360.5t272.5 -116.5q170 0 266 103.5t96 295.5v572q0 110 -50 173.5t-140 63.5q-4 0 -4 12.5t4 12.5l98 -2 q78 -4 125 -4q39 0 113 4l94 2q4 0 4 -12.5t-4 -12.5q-80 0 -125 -63.5t-45 -173.5v-569q0 -143 -63.5 -252t-179 -167.5t-267.5 -58.5t-268.5 57.5t-183 167t-66.5 257.5v661q0 61 -11.5 90t-41 40t-92.5 11q-6 0 -6.5 12.5zM528 1609q0 74 73.5 117t164.5 43 q90 0 153.5 -48t63.5 -116q0 -72 -72 -115t-166 -43q-98 0 -157.5 48.5t-59.5 113.5zM675 1650q0 -68 28 -121t75 -53q26 0 39.5 22.5t13.5 69.5q0 70 -30.5 121t-75.5 51q-49 0 -50 -90z" />
<glyph unicode="&#x16f;" horiz-adv-x="1034" d="M22.5 662.5q-4.5 11.5 2.5 13.5l274 131l10 2q10 0 21.5 -9t11.5 -18v-452q0 -221 170 -221q45 0 91 19t83 54v350q0 133 -63 134q-23 0 -54 -15h-2q-6 0 -10 11.5t2 13.5l275 131q4 2 10 2q10 0 21.5 -9t11.5 -18v-544q0 -70 13 -98.5t44 -28.5q29 0 84 22h4q6 0 11 -10 t-1 -12l-282 -138q-4 -2 -11 -2q-20 0 -35.5 44t-17.5 120q-135 -160 -293 -160q-113 0 -177 71t-64 185v301q0 133 -64 134q-23 0 -51 -15h-2q-8 0 -12.5 11.5zM291 1120q0 74 73.5 117t164.5 43q90 0 153.5 -48t63.5 -116q0 -72 -72 -115t-166 -43q-98 0 -157.5 48.5 t-59.5 113.5zM438 1161q0 -68 28 -121t75 -53q26 0 39.5 22.5t13.5 69.5q0 70 -30.5 121t-75.5 51q-49 0 -50 -90z" />
<glyph unicode="&#x17d;" horiz-adv-x="1239" d="M117 985l82 356q0 2 8 2q20 0 16 -6q-2 -6 -2 -16q0 -25 23.5 -33t95.5 -8h747q10 0 15.5 -10t-0.5 -17l-709 -1198q-8 -10 -6 -13t14 -3h414q74 0 143.5 38t118.5 101.5t62 134.5q2 6 12 6t10 -6l-28 -297q0 -6 -5.5 -13t-13.5 -7q-305 4 -981 4q-8 0 -12 9t2 18 l719 1202q6 10 5 13t-16 3q-233 0 -355 -17.5t-199.5 -73.5t-135.5 -175q-2 -2 -8 -2q-18 0 -16 8zM418 1642v5q0 4 5 8t7 2l224 -78l221 82h2q6 0 9 -5t-1 -9l-209 -240q-8 -8 -22 -8q-16 0 -25 8z" />
<glyph unicode="&#x17e;" horiz-adv-x="829" d="M66 549l86 321q0 2 8 2q16 0 14 -8q-4 -16 -4 -24q0 -29 24.5 -39t81.5 -10h472q8 0 14 -8.5t2 -16.5l-467 -715q-6 -14 10 -14q201 0 309.5 57.5t135.5 175.5q2 6 13 6t11 -6l-4 -247q0 -8 -6 -15.5t-14 -7.5h-670q-8 0 -13.5 8t-0.5 17l456 720q8 14 -10 15 q-168 0 -278.5 -54.5t-147.5 -162.5q0 -2 -8 -2q-16 0 -14 8zM275 1487q-2 6 8 8t14 -2l142 -223l139 223q4 4 13 2t7 -8l-137 -510q-4 -10 -22 -10t-25 10z" />
<glyph unicode="&#x2c6;" horiz-adv-x="536" d="M119 975l139 510q2 10 23 10q23 0 24 -10l137 -510v-2q0 -4 -9 -6t-11 4l-139 221l-142 -221q-2 -6 -13 -3t-9 7z" />
<glyph unicode="&#x2c7;" horiz-adv-x="536" d="M119 1487q-2 6 8 8t14 -2l142 -223l139 223q4 4 13 2t7 -8l-137 -510q-4 -10 -22 -10t-25 10z" />
<glyph unicode="&#x2d8;" horiz-adv-x="563" d="M72 1280q0 6 11 6t11 -4q0 -66 54.5 -115t134.5 -49q78 0 132 50.5t54 113.5q0 4 11.5 4t11.5 -6q0 -162 -53.5 -247t-155.5 -85t-156.5 85t-54.5 247z" />
<glyph unicode="&#x2d9;" horiz-adv-x="299" d="M27 1139q0 53 33.5 84.5t91.5 31.5q57 0 87.5 -30.5t30.5 -85.5q0 -59 -30.5 -92t-87.5 -33q-60 0 -92.5 32.5t-32.5 92.5z" />
<glyph unicode="&#x2da;" horiz-adv-x="632" d="M84 1120q0 74 73.5 117t164.5 43q90 0 153.5 -48t63.5 -116q0 -72 -72 -115t-166 -43q-98 0 -157.5 48.5t-59.5 113.5zM231 1161q0 -68 28 -121t75 -53q26 0 39.5 22.5t13.5 69.5q0 70 -30.5 121t-75.5 51q-49 0 -50 -90z" />
<glyph unicode="&#x2db;" horiz-adv-x="548" d="M72 -338q0 170 262 350l28 -10q-66 -63 -93 -117.5t-27 -124.5q0 -106 53 -171.5t145 -65.5q23 0 49.5 7t38.5 15h4q6 0 11.5 -6t-0.5 -10q-113 -92 -230 -92q-104 0 -172.5 65.5t-68.5 159.5z" />
<glyph unicode="&#x2dc;" horiz-adv-x="786" d="M123 977q92 166 178 166q23 0 96 -21q37 -12 78 -21t74 -9q35 0 56.5 12t47.5 43l4 2q4 0 8.5 -6t2.5 -10q-55 -98 -89 -131t-81 -33q-39 0 -115 22q-35 10 -72 18.5t-69 8.5q-39 0 -55.5 -10.5t-49.5 -44.5h-2q-6 0 -11 5t-1 9z" />
<glyph unicode="&#x2dd;" horiz-adv-x="624" d="M-1 909.5q-3 8.5 1 12.5q92 117 160 233q4 6 18 6q27 0 72 -14t72.5 -31.5t11.5 -25.5q-78 -33 -138.5 -70t-111.5 -72t-68 -45q-2 -2 -6 -2q-8 0 -11 8.5zM287 909.5q-4 8.5 0 12.5q80 98 162 233q4 6 18 6q25 0 70 -14t72.5 -31.5t11.5 -25.5q-78 -33 -137.5 -69 t-110.5 -72t-68 -46q-2 -2 -6 -2q-8 0 -12 8.5z" />
<glyph unicode="&#x2000;" horiz-adv-x="884" />
<glyph unicode="&#x2001;" horiz-adv-x="1769" />
<glyph unicode="&#x2002;" horiz-adv-x="884" />
<glyph unicode="&#x2003;" horiz-adv-x="1769" />
<glyph unicode="&#x2004;" horiz-adv-x="589" />
<glyph unicode="&#x2005;" horiz-adv-x="442" />
<glyph unicode="&#x2006;" horiz-adv-x="294" />
<glyph unicode="&#x2007;" horiz-adv-x="294" />
<glyph unicode="&#x2008;" horiz-adv-x="221" />
<glyph unicode="&#x2009;" horiz-adv-x="353" />
<glyph unicode="&#x200a;" horiz-adv-x="98" />
<glyph unicode="&#x2010;" d="M55 377q0 49 6 49l535 96q4 2 7 -15.5t3 -37.5t-3 -37.5t-7 -19.5l-530 -97q-5 -2 -8 18.5t-3 43.5z" />
<glyph unicode="&#x2011;" d="M55 377q0 49 6 49l535 96q4 2 7 -15.5t3 -37.5t-3 -37.5t-7 -19.5l-530 -97q-5 -2 -8 18.5t-3 43.5z" />
<glyph unicode="&#x2012;" d="M55 377q0 49 6 49l535 96q4 2 7 -15.5t3 -37.5t-3 -37.5t-7 -19.5l-530 -97q-5 -2 -8 18.5t-3 43.5z" />
<glyph unicode="&#x2013;" horiz-adv-x="1054" d="M59 391q0 18 2 32.5t7 14.5h917q4 0 7 -15t3 -34q0 -18 -3 -34.5t-7 -16.5h-915q-4 0 -7.5 16.5t-3.5 36.5z" />
<glyph unicode="&#x2014;" horiz-adv-x="1699" d="M59 391q0 18 2 32.5t7 14.5h1562q4 0 7 -15t3 -34q0 -18 -3 -34.5t-7 -16.5h-1560q-4 0 -7.5 16.5t-3.5 36.5z" />
<glyph unicode="&#x2018;" horiz-adv-x="364" d="M29 1014q0 92 41 171t123 158q2 2 6 3q6 0 10 -6.5t0 -10.5q-100 -102 -100 -242q0 -57 20 -83q18 31 76 30q49 0 78.5 -31.5t29.5 -82.5q0 -55 -35.5 -87t-97.5 -32q-72 0 -111.5 55t-39.5 158z" />
<glyph unicode="&#x2019;" horiz-adv-x="339" d="M27 1161q0 55 35.5 87t97.5 32q71 0 111 -55.5t40 -157.5q0 -92 -41 -171t-123 -159q-2 -2 -6 -2q-6 0 -10 6.5t0 10.5q100 102 100 241q0 57 -20 84q-18 -31 -76 -30q-49 0 -78.5 31.5t-29.5 82.5z" />
<glyph unicode="&#x201a;" horiz-adv-x="339" d="M27 98q0 55 35.5 87t97.5 32q72 0 111.5 -55.5t39.5 -157.5q0 -92 -41 -171t-122 -159q-2 -2 -7 -2q-6 0 -10 6.5t0 10.5q100 102 101 241q0 57 -21 84q-18 -31 -76 -30q-49 0 -78.5 31.5t-29.5 82.5z" />
<glyph unicode="&#x201c;" horiz-adv-x="694" d="M29 1014q0 92 41 171t123 158q2 2 6 3q6 0 10 -6.5t0 -10.5q-100 -102 -100 -242q0 -57 20 -83q18 31 76 30q49 0 78.5 -31.5t29.5 -82.5q0 -55 -35.5 -87t-97.5 -32q-72 0 -111.5 55t-39.5 158zM383 1014q0 92 41 171t123 158q2 2 6 3q6 0 10 -6.5t0 -10.5 q-100 -102 -100 -242q0 -57 20 -83q18 31 76 30q49 0 79 -31.5t30 -82.5q0 -55 -36 -87t-97 -32q-72 0 -112 55t-40 158z" />
<glyph unicode="&#x201d;" horiz-adv-x="694" d="M27 1161q0 55 35.5 87t97.5 32q72 0 111.5 -55.5t39.5 -157.5q0 -92 -41 -171t-122 -159q-2 -2 -7 -2q-6 0 -10 6.5t0 10.5q100 102 101 241q0 57 -21 84q-18 -31 -76 -30q-49 0 -78.5 31.5t-29.5 82.5zM381 1161q0 55 35.5 87t97.5 32q72 0 111.5 -55.5t39.5 -157.5 q0 -92 -41 -171t-122 -159q-2 -2 -7 -2q-6 0 -10 6.5t0 10.5q100 102 101 241q0 57 -21 84q-18 -31 -76 -30q-49 0 -78.5 31.5t-29.5 82.5z" />
<glyph unicode="&#x201e;" horiz-adv-x="718" d="M27 98q0 55 35.5 87t97.5 32q72 0 111.5 -55.5t39.5 -157.5q0 -92 -41 -171t-122 -159q-2 -2 -7 -2q-6 0 -10 6.5t0 10.5q100 102 101 241q0 57 -21 84q-18 -31 -76 -30q-49 0 -78.5 31.5t-29.5 82.5zM381 98q0 55 35.5 87t97.5 32q72 0 111.5 -55.5t39.5 -157.5 q0 -92 -41 -171t-122 -159q-2 -2 -7 -2q-6 0 -10 6.5t0 10.5q100 102 101 241q0 57 -21 84q-18 -31 -76 -30q-49 0 -78.5 31.5t-29.5 82.5z" />
<glyph unicode="&#x2026;" horiz-adv-x="1382" d="M90 102q0 53 34 86t91 33t89 -31.5t32 -87.5q0 -59 -32 -92t-89 -33t-91 34t-34 91zM569 102q0 53 34 86t91 33t89 -31.5t32 -87.5q0 -59 -32 -92t-89 -33t-91 34t-34 91zM1048 102q0 53 34 86t91 33t89 -31.5t32 -87.5q0 -59 -32 -92t-89 -33t-91 34t-34 91z" />
<glyph unicode="&#x202f;" horiz-adv-x="353" />
<glyph unicode="&#x2039;" horiz-adv-x="622" d="M100 412q0 14 9 22l385 305q0 2 4 2t8 -5t2 -7l-189 -317l189 -318q2 -4 -5 -11t-9 -1l-385 305q-8 8 -9 25z" />
<glyph unicode="&#x203a;" horiz-adv-x="622" d="M115 94l190 316l-190 319q-2 4 5 10t9 0l385 -305q10 -10 10 -22q0 -14 -10 -25l-385 -305q0 -2 -4 -2t-8 5t-2 9z" />
<glyph unicode="&#x205f;" horiz-adv-x="442" />
<glyph unicode="&#x20ac;" horiz-adv-x="1202" d="M74 385q0 10 4 19.5t10 9.5h817q6 0 6 -11q0 -14 -10 -31.5t-20 -17.5h-463q33 -150 116.5 -245t210.5 -95q106 0 190.5 61.5t151.5 188.5q3 4 11 4q4 0 9 -3t5 -5l-29 -192q-4 -16 -8 -22.5t-20 -14.5q-160 -55 -330 -56q-231 0 -362.5 109t-174.5 270h-100 q-6 0 -10 9.5t-4 21.5zM74 541q0 10 4 19t10 9h94q20 121 101.5 214.5t205 146.5t271.5 53q90 0 169 -16.5t132 -51.5q12 -6 22.5 -14t10.5 -18l-4 -17l-84 -196q0 -2 -5 -2q-6 0 -11 3t-5 9q0 109 -74.5 186.5t-191.5 77.5q-127 0 -215 -105.5t-103 -269.5h562q8 0 8 -10 q0 -12 -11.5 -30.5t-21.5 -18.5h-850q-6 0 -10 9t-4 22z" />
<glyph unicode="&#x2122;" horiz-adv-x="1511" d="M59 1124q4 23 8.5 80.5t4.5 100.5q0 6 12 7t12 -7q0 -14 14.5 -18.5t41.5 -4.5l184 -2l164 2q41 0 59.5 5t22.5 24q2 4 13 4t11 -4q-8 -172 -8 -187q0 -4 -11.5 -4t-11.5 4q0 45 -34.5 86t-75.5 41q-31 0 -39 -13t-8 -56v-379q0 -45 15.5 -59.5t70.5 -14.5q4 0 4 -12 t-4 -12l-168 2l-164 -2q-2 0 -2 12t2 12q53 0 69.5 14.5t16.5 59.5v381q0 45 -8 56t-39 11q-45 0 -82 -36.5t-45 -90.5q0 -4 -12.5 -4t-12.5 4zM633 717q0 12 2 12q47 0 74.5 25.5t29.5 76.5l13 349q-23 43 -52.5 59t-52.5 16q-4 0 -4 12.5t4 12.5l84 -4l88 4 q18 0 32.5 -12.5t33.5 -50.5l180 -351l164 381q6 14 17 23.5t22 9.5q6 0 23.5 -2t45.5 -2q35 0 58.5 2t44.5 2q4 0 4 -12.5t-4 -12.5q-45 0 -64.5 -16t-17.5 -68l12 -368q2 -45 15.5 -59.5t60.5 -14.5q4 0 4 -12t-4 -12l-148 2l-141 -2q-2 0 -2 12t2 12q45 0 59.5 14.5 t12.5 59.5l-12 315l-175 -403q-4 -8 -22 -8t-23 8l-204 389l-11 -273q-2 -53 14.5 -77.5t53.5 -24.5q4 0 4 -12t-4 -12l-98 2l-117 -2q-2 0 -2 12z" />
<glyph unicode="&#x25fc;" horiz-adv-x="788" d="M0 0v788h788v-788h-788z" />
</font>
</defs>
</svg>
